<svg width="31" height="31" viewBox="0 0 31 31" fill="none" xmlns="http://www.w3.org/2000/svg">
<circle cx="15.5" cy="15.5" r="15.5" fill="#2B1B1B"/>
<g clip-path="url(#clip0_56_323)">
<path d="M22.0989 25.1341H9.13258C8.93495 25.1341 8.7454 25.0587 8.60565 24.9245C8.4659 24.7904 8.38739 24.6084 8.38739 24.4187V10.8536C8.38739 10.6638 8.4659 10.4819 8.60565 10.3477C8.7454 10.2136 8.93495 10.1382 9.13258 10.1382H22.0989C22.2966 10.1382 22.4861 10.2136 22.6259 10.3477C22.7656 10.4819 22.8441 10.6638 22.8441 10.8536V24.4187C22.8441 24.6084 22.7656 24.7904 22.6259 24.9245C22.4861 25.0587 22.2966 25.1341 22.0989 25.1341ZM9.87777 23.7033H21.3537V11.569H9.87777V23.7033Z" fill="white"/>
<path d="M18.5215 14.0694C18.3239 14.0694 18.1343 13.994 17.9946 13.8599C17.8548 13.7257 17.7763 13.5437 17.7763 13.354V9.46708C17.7642 8.92456 17.5312 8.40818 17.1272 8.02861C16.7233 7.64904 16.1805 7.43647 15.6152 7.43647C15.05 7.43647 14.5072 7.64904 14.1033 8.02861C13.6993 8.40818 13.4663 8.92456 13.4542 9.46708V13.354C13.4542 13.5437 13.3757 13.7257 13.2359 13.8599C13.0962 13.994 12.9066 14.0694 12.709 14.0694C12.5114 14.0694 12.3218 13.994 12.1821 13.8599C12.0423 13.7257 11.9638 13.5437 11.9638 13.354V9.46708C11.9796 8.54741 12.3713 7.67053 13.0543 7.02553C13.7374 6.38052 14.6571 6.01904 15.6152 6.01904C16.5734 6.01904 17.4931 6.38052 18.1762 7.02553C18.8592 7.67053 19.2509 8.54741 19.2667 9.46708V13.354C19.2667 13.5437 19.1882 13.7257 19.0484 13.8599C18.9087 13.994 18.7191 14.0694 18.5215 14.0694Z" fill="white"/>
</g>
<defs>
<clipPath id="clip0_56_323">
<rect width="14.3077" height="19.0769" fill="white" transform="translate(8.34613 5.96143)"/>
</clipPath>
</defs>
</svg>
