<svg width="23" height="22" viewBox="0 0 23 22" fill="none" xmlns="http://www.w3.org/2000/svg">
<g clip-path="url(#clip0_690_129)">
<path d="M10.7008 0.0258904C10.6191 0.034483 10.3656 0.0645618 10.1422 0.0903435C8.59099 0.266516 6.97537 0.859484 5.62185 1.74894C3.00505 3.46769 1.2863 6.21339 0.882397 9.32003C0.800756 9.93449 0.792163 11.2064 0.856616 11.795C0.994116 12.9896 1.31208 14.1411 1.78904 15.1638L1.9781 15.5677L1.06716 18.1501C0.255053 20.4618 0.160522 20.7626 0.156225 21.0161C0.151928 21.2568 0.169116 21.3255 0.280835 21.5103C0.45271 21.781 0.744897 21.9657 1.04568 21.9915C1.24763 22.0044 1.51404 21.9228 3.91599 21.0806L6.56287 20.1525L6.93669 20.3286C10.8168 22.1462 15.4359 21.4501 18.6199 18.5712C20.1582 17.179 21.2668 15.3485 21.7867 13.3376C22.5472 10.4028 22.0101 7.25323 20.3343 4.75245C18.6242 2.20441 16.0375 0.57589 12.9566 0.103233C12.5484 0.0430775 11.0187 -0.0127811 10.7008 0.0258904ZM12.3121 1.33214C14.1468 1.49972 15.8398 2.18292 17.3051 3.33878C17.709 3.65675 18.4738 4.42159 18.8004 4.8341C21.5461 8.29308 21.5117 13.1614 18.7144 16.6075C17.2191 18.4509 14.9718 19.6841 12.5699 19.9806C12.0758 20.0407 10.9285 20.0407 10.4043 19.9806C9.33005 19.856 8.40193 19.5853 7.29333 19.0696C6.91521 18.8935 6.76911 18.8462 6.59724 18.8462C6.42966 18.8462 5.86247 19.031 4.02341 19.6712C2.72576 20.1267 1.66013 20.4919 1.64724 20.4833C1.63865 20.4704 2.00388 19.4048 2.45935 18.1071C3.09958 16.2681 3.28435 15.7009 3.28435 15.5333C3.28435 15.3614 3.23708 15.2153 3.06091 14.8372C2.36912 13.3548 2.10271 12.1818 2.10271 10.6349C2.10271 9.54777 2.22732 8.74425 2.56677 7.72589C3.92888 3.5923 7.98513 0.932531 12.3121 1.33214Z" fill="#2B1B1B"/>
<path d="M7.69296 4.98869C7.49101 5.06603 7.34491 5.19493 6.70038 5.83947C6.28358 6.25626 5.90546 6.67306 5.8539 6.76759C5.54022 7.39064 5.54022 8.17697 5.8496 9.12658C6.13319 9.98165 6.73476 11.0301 7.54687 12.0742C8.03671 12.7102 9.4203 14.0938 10.0562 14.5836C11.384 15.6106 12.6558 16.2723 13.6742 16.457C14.0394 16.5258 14.6668 16.5172 14.9461 16.4399C15.3328 16.3324 15.5562 16.1649 16.3125 15.4086C16.9699 14.7512 17.0601 14.6481 17.1461 14.416C17.2664 14.0895 17.2492 13.6942 17.1031 13.4063C16.9699 13.1399 15.4016 11.5629 15.118 11.4082C14.8301 11.2492 14.4519 11.2192 14.134 11.3223C13.9535 11.3824 13.8246 11.477 13.5109 11.782L13.1156 12.1645L12.7203 11.9238C11.7062 11.2965 10.834 10.4242 10.2066 9.41017L9.96601 9.01486L10.3484 8.61954C10.6535 8.30587 10.748 8.17697 10.8082 7.9965C10.9113 7.67853 10.8812 7.3004 10.7223 7.01251C10.5676 6.72892 8.99062 5.16056 8.72421 5.02736C8.44491 4.88556 8.00233 4.86837 7.69296 4.98869ZM9.54062 7.5797C9.54062 7.60118 9.36874 7.79884 9.1539 8.01369C8.71991 8.45626 8.62538 8.63244 8.62968 8.98908C8.62968 9.19962 8.65976 9.28986 8.83593 9.61212C9.67382 11.1633 10.9672 12.4567 12.5184 13.2945C12.8406 13.4707 12.9309 13.5008 13.1414 13.5008C13.498 13.5051 13.6742 13.4106 14.1168 12.9766C14.3316 12.7617 14.5293 12.5899 14.5508 12.5899C14.5723 12.5899 14.8945 12.8949 15.2684 13.2688L15.943 13.9434L15.3328 14.5535C14.6023 15.2797 14.5551 15.3012 13.9578 15.1981C12.7633 14.9918 11.1219 13.9563 9.64804 12.4824C8.17421 11.0086 7.13866 9.3672 6.93241 8.17267C6.82929 7.5754 6.85077 7.52814 7.57694 6.79767L8.1871 6.18751L8.86171 6.86212C9.23554 7.23595 9.54062 7.55822 9.54062 7.5797Z" fill="#2B1B1B"/>
</g>
<defs>
<clipPath id="clip0_690_129">
<rect width="22" height="22" fill="white" transform="translate(0.130432)"/>
</clipPath>
</defs>
</svg>
