<svg width="103" height="55" viewBox="0 0 103 55" fill="none" xmlns="http://www.w3.org/2000/svg">
<path d="M95 35.6016C95.3438 35.2422 95.6016 34.8359 95.7734 34.3828C95.9609 33.9141 96.0391 33.4531 96.0078 33C95.6953 33.9219 95.25 34.6875 94.6719 35.2969C94.375 35.6094 94.0312 35.875 93.6406 36.0938C93.2656 36.3125 92.8438 36.4688 92.375 36.5625C92.8438 36.6562 93.3125 36.6094 93.7812 36.4219C94.2344 36.25 94.6406 35.9766 95 35.6016ZM92.4922 31.3828C92.1016 31.5859 91.7891 31.9219 91.5547 32.3906C91.3203 32.8438 91.2422 33.2969 91.3203 33.75C91.3828 34.1875 91.5781 34.4922 91.9062 34.6641C92.25 34.8359 92.6172 34.8203 93.0078 34.6172C93.4141 34.4141 93.7344 34.0781 93.9688 33.6094C94.2031 33.1562 94.2812 32.7031 94.2031 32.25C94.1406 31.8125 93.9375 31.5078 93.5938 31.3359C93.2656 31.1641 92.8984 31.1797 92.4922 31.3828ZM85.2266 25.125C85.9766 24.2969 86.8906 23.6328 87.9688 23.1328C88.875 22.6953 89.9766 22.3828 91.2734 22.1953C90.7578 22.1953 90.1797 22.2422 89.5391 22.3359C88.9453 22.4453 88.375 22.6094 87.8281 22.8281C86.7188 23.25 85.7422 23.9141 84.8984 24.8203C84.0859 25.6953 83.4531 26.6953 83 27.8203C82.7969 28.3516 82.6172 28.9141 82.4609 29.5078C82.3047 30.1641 82.1953 30.7344 82.1328 31.2188C82.4922 29.9375 82.8906 28.8516 83.3281 27.9609C83.8594 26.8359 84.4922 25.8906 85.2266 25.125ZM84.5703 22.9688C86.6172 21.2031 89.2109 20.3359 92.3516 20.3672C95.3359 20.4141 97.7578 21.25 99.6172 22.875C101.305 24.375 102.289 26.2891 102.57 28.6172C102.852 30.9141 102.398 33.125 101.211 35.25C99.9297 37.5312 98.0234 39.2656 95.4922 40.4531C94.7266 40.8125 94.2344 41.3125 94.0156 41.9531C93.8594 42.4688 93.8516 43.1797 93.9922 44.0859C94.0078 44.2578 94.0391 44.4609 94.0859 44.6953L94.2266 45.3516C94.3359 45.9453 94.4141 46.4062 94.4609 46.7344C94.6328 47.8906 94.6641 48.9219 94.5547 49.8281C94.3828 51.1406 93.8906 52.1875 93.0781 52.9688C92.25 53.75 91.2578 54.0859 90.1016 53.9766C88.8359 53.8672 87.5781 53.2266 86.3281 52.0547C84.9219 50.7266 83.6406 48.8281 82.4844 46.3594C81.2812 43.7969 80.5078 41.0234 80.1641 38.0391C79.8203 34.9609 79.9922 32.1328 80.6797 29.5547C81.4297 26.7266 82.7266 24.5312 84.5703 22.9688Z" fill="#FF414D"/>
<path d="M21.9297 33.6484L22.3281 33.6953C22.8906 33.7734 23.4297 33.8828 23.9453 34.0234C23.5234 33.7266 23.0078 33.5 22.3984 33.3438C22.1953 33.2969 21.9219 33.25 21.5781 33.2031L20.7109 33.1797C20.4766 33.1641 20.2031 33.1719 19.8906 33.2031L19.4688 33.25L19.0703 33.2969C18.4297 33.375 17.8828 33.4766 17.4297 33.6016C17.8984 33.6328 18.4531 33.6484 19.0938 33.6484H19.4922L19.9141 33.625H20.3125H20.7344H21.5312L21.9297 33.6484ZM8.54688 26.2656L9.90625 25.4453L10.5625 25L11.2422 24.5547L10.5156 24.8828L9.78906 25.2344L8.35938 25.9844C7.4375 26.4375 6.5625 27.0625 5.73438 27.8594C4.90625 28.6562 4.25 29.5078 3.76562 30.4141C3.46875 30.9922 3.25781 31.4922 3.13281 31.9141C2.96094 32.5234 2.86719 33.0547 2.85156 33.5078C3.07031 32.4922 3.47656 31.5234 4.07031 30.6016C4.63281 29.6953 5.28906 28.8828 6.03906 28.1641C6.77344 27.4609 7.60938 26.8281 8.54688 26.2656ZM6.74219 13.1875C7.30469 12.7813 8.01562 12.4375 8.875 12.1562C9.54688 11.9531 10.3281 11.7734 11.2188 11.6172L12.4141 11.4062L13.6328 11.2422C11.8516 11.1172 10.2188 11.2813 8.73438 11.7344C7.8125 12.0313 7.07812 12.4297 6.53125 12.9297C6.21875 13.1797 5.95312 13.5078 5.73438 13.9141C5.54688 14.2734 5.44531 14.6719 5.42969 15.1094C5.60156 14.3281 6.03906 13.6875 6.74219 13.1875ZM19.1875 31.6562C19.5938 31.625 19.9609 31.6094 20.2891 31.6094C22.4609 31.5156 24.2422 31.9609 25.6328 32.9453C27.1953 34.0391 27.875 35.6016 27.6719 37.6328C27.5156 39.2891 26.5391 40.5781 24.7422 41.5C23.1953 42.2969 21.1406 42.7734 18.5781 42.9297C16.3281 43.0859 13.9922 42.9766 11.5703 42.6016C9.28906 42.2578 7.47656 41.7812 6.13281 41.1719C4.11719 40.2344 2.6875 39.0078 1.84375 37.4922C1.07812 36.1328 0.835938 34.625 1.11719 32.9688C1.36719 31.4375 2.03125 29.9375 3.10938 28.4688C4.15625 27.0469 5.4375 25.8594 6.95312 24.9062C8.09375 24.2031 9.25781 23.5469 10.4453 22.9375C10.8984 22.7031 11.375 22.4688 11.875 22.2344C12.2188 22.0625 12.6172 21.875 13.0703 21.6719C13.9609 21.2656 14.5078 21.0078 14.7109 20.8984C15.0703 20.6953 15.2344 20.5312 15.2031 20.4062C15.1406 20.1406 14.75 20.0156 14.0312 20.0312C13.8906 20.0312 13.7109 20.0391 13.4922 20.0547H13.1875L12.8594 20.0781C12.2812 20.0938 11.7734 20.1016 11.3359 20.1016C10.4453 20.0859 9.59375 20.0078 8.78125 19.8672C7.78125 19.6797 6.91406 19.4141 6.17969 19.0703C4.28906 18.1797 3.44531 16.7969 3.64844 14.9219C3.85156 12.9375 5.10156 11.4766 7.39844 10.5391C9.64844 9.61719 12.7422 9.27344 16.6797 9.50781C20.1484 9.71094 22.9141 10.5156 24.9766 11.9219C27.0547 13.3281 28.125 15.1719 28.1875 17.4531C28.2344 19.3281 27.5469 21.1016 26.125 22.7734C25.0469 24.0547 23.4609 25.3438 21.3672 26.6406C20.7109 27.0625 19.8672 27.5625 18.8359 28.1406L18.2266 28.4688L17.6641 28.7969C17.2422 29.0312 16.8906 29.2344 16.6094 29.4062C15.1719 30.2656 14.4688 30.9297 14.5 31.3984C14.5156 31.7578 15.1094 31.9141 16.2812 31.8672C16.6094 31.8516 17.2266 31.8125 18.1328 31.75C18.5703 31.7031 18.9219 31.6719 19.1875 31.6562ZM38.6469 36.5312L38.8813 36.4531C39.5792 36.2344 40.199 36.0677 40.7406 35.9531C40.4594 35.901 40.1313 35.901 39.7563 35.9531C39.4646 35.9844 39.1417 36.0573 38.7875 36.1719C38.6625 36.2031 38.5063 36.2604 38.3188 36.3438L38.1 36.4219L37.8813 36.5156C37.5792 36.6198 37.2667 36.7031 36.9438 36.7656C37.2458 36.8281 37.5792 36.8177 37.9438 36.7344C38.0688 36.7135 38.2302 36.6719 38.4281 36.6094L38.6469 36.5312ZM32.8344 22.5312C33.2198 22.3125 33.6521 22.1406 34.1313 22.0156C34.5271 21.901 34.9958 21.8229 35.5375 21.7812C35.0896 21.75 34.6104 21.7812 34.1 21.875C33.6 21.9688 33.1417 22.1198 32.725 22.3281C32.2979 22.5365 31.8969 22.8125 31.5219 23.1562C31.199 23.4583 30.9021 23.8542 30.6313 24.3438C30.2042 25.1146 29.8813 26.026 29.6625 27.0781C29.475 27.9844 29.376 28.9375 29.3656 29.9375L29.4594 29.2188C29.501 28.9479 29.5427 28.7135 29.5844 28.5156C29.6781 28.026 29.7823 27.5625 29.8969 27.125C30.1781 26.0417 30.5115 25.1615 30.8969 24.4844C31.1469 24.0365 31.4177 23.6667 31.7094 23.375C32.0115 23.0729 32.3865 22.7917 32.8344 22.5312ZM37.1313 30.3125L37.0219 30.3594L36.7719 30.4375L36.5375 30.5156C36.6833 30.5677 36.8552 30.5885 37.0531 30.5781C37.126 30.5781 37.2146 30.5677 37.3188 30.5469L37.4438 30.5312L37.5531 30.5156C37.699 30.4948 37.8552 30.4792 38.0219 30.4688C38.2198 30.4688 38.3865 30.4844 38.5219 30.5156C38.4281 30.3802 38.2719 30.2865 38.0531 30.2344C37.8969 30.1927 37.7146 30.1875 37.5063 30.2188C37.4333 30.2292 37.35 30.25 37.2563 30.2812L37.1313 30.3125ZM36.4594 35.4688C36.8344 35.6146 37.2927 35.5833 37.8344 35.375C39.6052 34.7083 40.9906 34.5677 41.9906 34.9531C42.9385 35.3177 43.4073 36.099 43.3969 37.2969C43.3865 38.1927 42.9542 39.0885 42.1 39.9844C41.2771 40.8281 40.225 41.526 38.9438 42.0781C37.6313 42.651 36.3344 42.9583 35.0531 43C33.6469 43.0417 32.4646 42.75 31.5063 42.125C30.5167 41.4896 29.7146 40.2656 29.1 38.4531C28.5271 36.7656 28.1938 34.8385 28.1 32.6719C28.0167 30.4948 28.1938 28.5 28.6313 26.6875C29.1104 24.7188 29.8292 23.2812 30.7875 22.375C31.8292 21.3958 33.0896 20.8125 34.5688 20.625C35.8813 20.4688 37.1885 20.625 38.4906 21.0938C39.7302 21.5521 40.6677 22.1823 41.3031 22.9844C41.9698 23.8281 42.1208 24.6615 41.7563 25.4844C41.5479 25.9635 41.1781 26.3125 40.6469 26.5312C40.2719 26.6875 39.7354 26.7917 39.0375 26.8438L38.6156 26.875L38.1781 26.8906C37.8344 26.9115 37.5583 26.9375 37.35 26.9688C36.7458 27.0417 36.2979 27.1875 36.0063 27.4062C35.8083 27.5521 35.6729 27.75 35.6 28C35.5375 28.2396 35.5427 28.474 35.6156 28.7031C35.8135 29.2448 36.2563 29.4271 36.9438 29.25C37.7563 29.0417 38.4542 29.099 39.0375 29.4219C39.6104 29.7344 39.9177 30.2135 39.9594 30.8594C40.001 31.5573 39.7771 32.1302 39.2875 32.5781C38.7458 33.0677 37.9177 33.3646 36.8031 33.4688C36.4281 33.5104 36.1469 33.6719 35.9594 33.9531C35.7927 34.224 35.751 34.5104 35.8344 34.8125C35.9281 35.1354 36.1365 35.3542 36.4594 35.4688ZM52.7969 31.4531C53.0885 31.3385 53.3542 31.1615 53.5938 30.9219C54.0625 30.401 54.2396 29.8177 54.125 29.1719C53.9688 29.8073 53.7135 30.3177 53.3594 30.7031C52.974 31.1302 52.4792 31.4062 51.875 31.5312C52.1771 31.5938 52.4844 31.5677 52.7969 31.4531ZM51.2031 28.2188C51.0052 28.4479 50.8958 28.7292 50.875 29.0625C50.8646 29.3958 50.9583 29.6823 51.1562 29.9219C51.3438 30.1719 51.5781 30.3021 51.8594 30.3125C52.1302 30.3229 52.3698 30.2135 52.5781 29.9844C52.7865 29.7552 52.8958 29.474 52.9062 29.1406C52.9167 28.8073 52.8281 28.5156 52.6406 28.2656C52.4531 28.026 52.2188 27.901 51.9375 27.8906C51.6562 27.8802 51.4115 27.9896 51.2031 28.2188ZM47.4844 23.875C48.026 23.25 48.625 22.7708 49.2812 22.4375C49.9271 22.1042 50.6719 21.901 51.5156 21.8281C51.151 21.7969 50.7552 21.8125 50.3281 21.875C49.9323 21.9479 49.5469 22.0677 49.1719 22.2344C48.4844 22.526 47.8438 23.0052 47.25 23.6719C46.75 24.2656 46.3281 24.9479 45.9844 25.7188C45.6615 26.4583 45.4271 27.2135 45.2812 27.9844C45.5938 27.1198 45.901 26.3958 46.2031 25.8125C46.6094 25.0312 47.0365 24.3854 47.4844 23.875ZM58.3906 34.5156C58.8802 35.0573 59.3125 35.6406 59.6875 36.2656C60.2604 37.2448 60.5469 38.1927 60.5469 39.1094C60.5469 39.9323 60.3281 40.6719 59.8906 41.3281C59.4948 41.9219 58.9792 42.3698 58.3438 42.6719C57.7188 42.974 57.1042 43.0677 56.5 42.9531C55.0729 42.6823 54.0104 41.8594 53.3125 40.4844C53.1979 40.2448 53.0729 39.9635 52.9375 39.6406L52.7812 39.2188L52.625 38.8281C52.375 38.1927 52.1406 37.75 51.9219 37.5C51.5573 37.0833 51.2812 37 51.0938 37.25C50.8333 37.5938 50.6771 38.5677 50.625 40.1719C50.5938 41.0365 50.3177 41.724 49.7969 42.2344C49.3073 42.7031 48.7083 42.9271 48 42.9062C47.25 42.8854 46.5573 42.599 45.9219 42.0469C45.2031 41.4219 44.6667 40.5573 44.3125 39.4531C43.7188 37.6302 43.4115 35.6042 43.3906 33.375C43.3698 31.0729 43.6667 28.9583 44.2812 27.0312C44.9583 24.9167 45.9375 23.3073 47.2188 22.2031C48.6562 20.9531 50.3802 20.4375 52.3906 20.6562C53.9323 20.8229 55.2188 21.3229 56.25 22.1562C57.1875 22.9271 57.8438 23.9062 58.2188 25.0938C58.5625 26.2292 58.6094 27.4167 58.3594 28.6562C58.099 29.9062 57.5573 31.0365 56.7344 32.0469C56.5573 32.2656 56.5208 32.4844 56.625 32.7031C56.6979 32.8594 56.9115 33.1042 57.2656 33.4375L57.3906 33.5469L57.5156 33.6562C57.6198 33.75 57.7135 33.8333 57.7969 33.9062C58.0156 34.1146 58.2135 34.3177 58.3906 34.5156ZM70.3531 36.6094C70.624 36.474 70.8688 36.2656 71.0875 35.9844C71.4938 35.4323 71.624 34.8333 71.4781 34.1875C71.3635 34.8438 71.15 35.3854 70.8375 35.8125C70.4938 36.2708 70.0302 36.6094 69.4469 36.8281C69.7594 36.849 70.0615 36.776 70.3531 36.6094ZM68.0094 33.3125C67.8219 33.6354 67.7594 33.9948 67.8219 34.3906C67.8844 34.7865 68.0563 35.1042 68.3375 35.3438C68.6188 35.5833 68.926 35.6771 69.2594 35.625C69.5927 35.5729 69.8531 35.3854 70.0406 35.0625C70.2281 34.75 70.2906 34.3958 70.2281 34C70.1656 33.6042 69.9938 33.2865 69.7125 33.0469C69.4313 32.7969 69.124 32.6979 68.7906 32.75C68.4573 32.8125 68.1969 33 68.0094 33.3125ZM64.8688 23.7656C65.4938 23.1823 66.2073 22.7292 67.0094 22.4062C67.7385 22.1042 68.5771 21.9167 69.525 21.8438L68.8688 21.8281L68.5406 21.8438L68.2125 21.875C67.7542 21.9375 67.3271 22.0365 66.9313 22.1719C66.1083 22.4531 65.3531 22.9115 64.6656 23.5469C64.0198 24.1406 63.4885 24.8438 63.0719 25.6562C62.6656 26.4375 62.374 27.2604 62.1969 28.125L62.4313 27.5156L62.6813 26.9062L62.9625 26.3281L63.1188 26.0469L63.275 25.7656C63.7646 24.9635 64.2958 24.2969 64.8688 23.7656ZM64.1813 22.5469C66.3375 20.7031 69.025 20.1771 72.2438 20.9688C75.1188 21.6771 77.051 23.3594 78.0406 26.0156C78.9156 28.3698 78.9365 31.0312 78.1031 34C77.2906 36.8958 75.926 39.1979 74.0094 40.9062C71.9052 42.7812 69.6656 43.3958 67.2906 42.75C64.7594 42.0729 62.8844 40.3802 61.6656 37.6719C60.5302 35.1719 60.1865 32.4531 60.6344 29.5156C61.1031 26.4948 62.2854 24.1719 64.1813 22.5469Z" fill="#FF414D"/>
</svg>
