<svg width="483" height="220" viewBox="0 0 483 220" fill="none" xmlns="http://www.w3.org/2000/svg">
<path d="M256.21 -7.15256e-06V3.3L211.81 101.55H216.91C225.91 101.55 233.81 98.7 240.61 93C247.51 87.2 252.46 79 255.46 68.4H258.16L256.36 105H179.56V102.15L224.41 3.3H218.26C209.36 3.3 202.61 5.24999 198.01 9.14999C193.41 13.05 188.21 21.05 182.41 33.15H179.71L181.96 -7.15256e-06H256.21ZM292.643 76.3125C292.643 77.6458 292.831 79.1042 293.206 80.6875C293.622 82.2292 294.206 83.7917 294.956 85.375C295.706 86.9583 296.622 88.4792 297.706 89.9375C298.831 91.3542 300.102 92.625 301.518 93.75C302.977 94.875 304.581 95.7708 306.331 96.4375C308.081 97.1042 309.997 97.4375 312.081 97.4375C313.539 97.4375 314.893 97.2708 316.143 96.9375C317.393 96.6042 318.56 96.1458 319.643 95.5625C320.727 94.9792 321.768 94.3125 322.768 93.5625C323.768 92.7708 324.768 91.9375 325.768 91.0625L327.331 92.5625C326.372 93.8542 325.143 95.2708 323.643 96.8125C322.143 98.3542 320.331 99.8125 318.206 101.188C316.081 102.521 313.602 103.646 310.768 104.562C307.935 105.438 304.706 105.875 301.081 105.875C297.456 105.875 293.914 105.229 290.456 103.938C287.039 102.604 283.997 100.625 281.331 98C278.664 95.375 276.518 92.1042 274.893 88.1875C273.31 84.2708 272.518 79.6875 272.518 74.4375C272.518 70.6458 272.997 67.1667 273.956 64C274.914 60.8333 276.206 57.9792 277.831 55.4375C279.497 52.8958 281.414 50.6667 283.581 48.75C285.789 46.8333 288.102 45.25 290.518 44C292.935 42.7083 295.393 41.75 297.893 41.125C300.435 40.4583 302.872 40.125 305.206 40.125C308.289 40.125 310.977 40.4583 313.268 41.125C315.56 41.7917 317.456 42.6875 318.956 43.8125C320.497 44.9375 321.643 46.25 322.393 47.75C323.143 49.2083 323.518 50.75 323.518 52.375C323.518 54.3333 322.956 56.1042 321.831 57.6875C320.706 59.2292 319.206 60.5833 317.331 61.75L292.643 76.3125ZM305.206 63.625C305.747 63.2917 306.185 62.9792 306.518 62.6875C306.893 62.3542 307.185 61.9792 307.393 61.5625C307.602 61.1042 307.747 60.5625 307.831 59.9375C307.956 59.2708 308.018 58.4583 308.018 57.5C308.018 56.4583 307.893 55.3125 307.643 54.0625C307.435 52.7708 307.06 51.5625 306.518 50.4375C305.977 49.3125 305.289 48.375 304.456 47.625C303.622 46.875 302.622 46.5 301.456 46.5C299.956 46.5 298.664 46.9583 297.581 47.875C296.539 48.75 295.664 49.8958 294.956 51.3125C294.289 52.7292 293.747 54.3542 293.331 56.1875C292.956 57.9792 292.664 59.7917 292.456 61.625C292.247 63.4583 292.122 65.2292 292.081 66.9375C292.039 68.6042 292.018 70.0208 292.018 71.1875L305.206 63.625ZM359.546 53.3125C361.129 50.8958 362.817 48.7083 364.608 46.75C365.358 45.9167 366.171 45.1042 367.046 44.3125C367.921 43.5208 368.817 42.8125 369.733 42.1875C370.692 41.5625 371.671 41.0625 372.671 40.6875C373.671 40.3125 374.671 40.125 375.671 40.125C377.796 40.125 379.462 40.7708 380.671 42.0625C381.879 43.3125 382.483 45.0833 382.483 47.375C382.483 48.7917 382.358 50.1667 382.108 51.5C381.9 52.7917 381.462 54.375 380.796 56.25H379.046C378.796 54.9583 378.212 53.8958 377.296 53.0625C376.379 52.1875 375.046 51.75 373.296 51.75C372.004 51.75 370.733 52 369.483 52.5C368.233 52.9583 367.004 53.5417 365.796 54.25C364.629 54.9583 363.504 55.7292 362.421 56.5625C361.379 57.3958 360.421 58.1875 359.546 58.9375V99.5C359.546 100.042 359.462 100.688 359.296 101.438C359.129 102.188 358.712 102.896 358.046 103.562C357.421 104.229 356.462 104.792 355.171 105.25C353.921 105.75 352.192 106 349.983 106C347.775 106 346.025 105.729 344.733 105.188C343.483 104.688 342.525 104.083 341.858 103.375C341.192 102.667 340.775 101.938 340.608 101.188C340.442 100.438 340.358 99.8333 340.358 99.375V51.125C340.358 49.9167 340.067 48.875 339.483 48C338.942 47.0833 338.004 46.625 336.671 46.625C335.962 46.625 335.358 46.75 334.858 47C334.358 47.25 333.817 47.6042 333.233 48.0625L331.921 46.5C332.879 45.7083 333.942 44.9375 335.108 44.1875C336.317 43.3958 337.608 42.7083 338.983 42.125C340.358 41.5417 341.837 41.0625 343.421 40.6875C345.004 40.3125 346.671 40.125 348.421 40.125C350.212 40.125 351.733 40.375 352.983 40.875C354.275 41.3333 355.317 41.9583 356.108 42.75C356.942 43.5 357.587 44.3542 358.046 45.3125C358.504 46.2708 358.837 47.25 359.046 48.25C359.296 49.2083 359.442 50.1458 359.483 51.0625C359.525 51.9375 359.546 52.6875 359.546 53.3125ZM422.371 106.1C411.737 106.1 403.634 102.507 398.061 95.32C392.561 88.1333 389.811 78.0867 389.811 65.18C389.811 52.2733 392.781 42.6667 398.721 36.36C404.661 29.98 412.764 26.79 423.031 26.79C433.371 26.79 441.474 29.9433 447.341 36.25C453.281 42.5567 456.251 52.6033 456.251 66.39C456.251 80.1767 453.281 90.26 447.341 96.64C441.401 102.947 433.077 106.1 422.371 106.1ZM412.361 62.32V72.11C412.361 79.2233 412.397 84.2467 412.471 87.18C412.617 90.1133 413.021 93.1567 413.681 96.31C414.341 99.4633 415.404 101.517 416.871 102.47C418.337 103.35 420.061 103.79 422.041 103.79C424.021 103.79 425.487 103.68 426.441 103.46C427.467 103.24 428.347 102.8 429.081 102.14C429.887 101.407 430.547 100.71 431.061 100.05C431.574 99.3167 431.977 98.2167 432.271 96.75C432.637 95.2833 432.931 93.9267 433.151 92.68C433.371 91.4333 433.517 89.6 433.591 87.18C433.737 82.4867 433.811 77.7567 433.811 72.99V63.31C433.811 48.9367 433.261 39.66 432.161 35.48C431.134 31.2267 428.127 29.1 423.141 29.1C418.154 29.1 415.111 31.2633 414.011 35.59C412.911 39.9167 412.361 48.8267 412.361 62.32Z" fill="#FF414D"/>
<path d="M5.4 184.2C4.33333 184.2 3.8 183.6 3.8 182.4C3.8 182.133 3.86667 181.8 4 181.4C4 181.133 4.06667 180.8 4.2 180.4C5.13333 176.8 7.53333 171.533 11.4 164.6C15.4 157.533 20.0667 149.867 25.4 141.6C20.0667 140.267 15.6667 138.267 12.2 135.6C8.2 132.4 6.2 128.8 6.2 124.8C6.2 121.733 7.4 119.133 9.8 117C10.3333 116.467 10.8 116.2 11.2 116.2C11.4667 116.2 11.6 116.4 11.6 116.8C11.6 117.6 11.2667 118.333 10.6 119C9.66667 120.333 9.2 121.933 9.2 123.8C9.2 125.4 9.53333 127 10.2 128.6C11 130.2 12.2667 131.667 14 133C17.7333 135.933 22.2 137.8 27.4 138.6C32.4667 131 37.6667 123.467 43 116C48.4667 108.4 53.6 101.467 58.4 95.2C63.3333 88.9333 67.4667 83.9333 70.8 80.2C74.1333 76.3333 76.2667 74.4 77.2 74.4C78.1333 74.4 78.8667 74.9333 79.4 76C79.9333 76.9333 80.2 77.8 80.2 78.6C80.2 78.6 78.8 80.4 76 84C73.2 87.4667 69.5333 92.1333 65 98C60.4667 103.867 55.5333 110.4 50.2 117.6C44.8667 124.8 39.6 132.133 34.4 139.6C41.4667 140 49.0667 139.4 57.2 137.8C65.3333 136.2 73.3333 134.067 81.2 131.4C89.2 128.733 96.4667 125.867 103 122.8C109.667 119.733 114.933 116.933 118.8 114.4C126.933 108.933 132.867 103.333 136.6 97.6C140.467 91.7333 142.4 86.2667 142.4 81.2C142.4 74.6667 139.467 69.2667 133.6 65C127.867 60.7333 119.6 58.6 108.8 58.6C105.733 58.6 102.4 58.8 98.8 59.2C93.0667 59.8667 86.6 61 79.4 62.6C72.2 64.2 65 66.2 57.8 68.6C50.6 70.8667 44 73.3333 38 76C32 78.6667 27.2667 81.4667 23.8 84.4C21.5333 86.1333 20.8 87.6667 21.6 89C21.8667 89.4 22 89.8 22 90.2C22 90.4667 21.8 90.6 21.4 90.6C21 90.4667 20.6 90.2667 20.2 90C18.0667 88.6667 16.4667 86.9333 15.4 84.8C14.3333 82.6667 13.8 80.7333 13.8 79C13.8 78.3333 13.8667 77.7333 14 77.2C14.2667 76.6667 14.4667 76.2 14.6 75.8C17.2667 72.0667 21.7333 68.5333 28 65.2C34.4 61.7333 41.8 58.6 50.2 55.8C58.7333 53 67.6 50.6667 76.8 48.8C86 46.8 94.7333 45.4 103 44.6C104.6 44.4667 106.133 44.4 107.6 44.4C109.2 44.2667 110.667 44.2 112 44.2C125.867 44.2 136 47.1333 142.4 53C148.933 58.7333 152.2 65.7333 152.2 74C152.2 81.6 149.467 89.5333 144 97.8C138.667 106.067 130.867 113.2 120.6 119.2C116.467 121.6 111.267 124.2 105 127C98.7333 129.667 91.8667 132.267 84.4 134.8C76.9333 137.2 69.3333 139.2 61.6 140.8C53.8667 142.4 46.4667 143.2 39.4 143.2C38.0667 143.2 36.8 143.2 35.6 143.2C34.4 143.067 33.2 142.933 32 142.8C26.9333 150.133 22.3333 157.2 18.2 164C14.2 170.667 11.2667 176.333 9.4 181C9.13333 181.933 8.53333 182.667 7.6 183.2C6.8 183.867 6.06667 184.2 5.4 184.2ZM144.75 150.312C144.75 151.646 144.938 153.104 145.312 154.688C145.729 156.229 146.312 157.792 147.062 159.375C147.812 160.958 148.729 162.479 149.812 163.938C150.938 165.354 152.208 166.625 153.625 167.75C155.083 168.875 156.688 169.771 158.438 170.438C160.188 171.104 162.104 171.438 164.188 171.438C165.646 171.438 167 171.271 168.25 170.938C169.5 170.604 170.667 170.146 171.75 169.562C172.833 168.979 173.875 168.312 174.875 167.562C175.875 166.771 176.875 165.938 177.875 165.062L179.438 166.562C178.479 167.854 177.25 169.271 175.75 170.812C174.25 172.354 172.438 173.812 170.312 175.188C168.188 176.521 165.708 177.646 162.875 178.562C160.042 179.438 156.812 179.875 153.188 179.875C149.562 179.875 146.021 179.229 142.562 177.938C139.146 176.604 136.104 174.625 133.438 172C130.771 169.375 128.625 166.104 127 162.188C125.417 158.271 124.625 153.688 124.625 148.438C124.625 144.646 125.104 141.167 126.062 138C127.021 134.833 128.312 131.979 129.938 129.438C131.604 126.896 133.521 124.667 135.688 122.75C137.896 120.833 140.208 119.25 142.625 118C145.042 116.708 147.5 115.75 150 115.125C152.542 114.458 154.979 114.125 157.312 114.125C160.396 114.125 163.083 114.458 165.375 115.125C167.667 115.792 169.562 116.688 171.062 117.812C172.604 118.938 173.75 120.25 174.5 121.75C175.25 123.208 175.625 124.75 175.625 126.375C175.625 128.333 175.062 130.104 173.938 131.688C172.812 133.229 171.312 134.583 169.438 135.75L144.75 150.312ZM157.312 137.625C157.854 137.292 158.292 136.979 158.625 136.688C159 136.354 159.292 135.979 159.5 135.562C159.708 135.104 159.854 134.562 159.938 133.938C160.062 133.271 160.125 132.458 160.125 131.5C160.125 130.458 160 129.312 159.75 128.062C159.542 126.771 159.167 125.562 158.625 124.438C158.083 123.312 157.396 122.375 156.562 121.625C155.729 120.875 154.729 120.5 153.562 120.5C152.062 120.5 150.771 120.958 149.688 121.875C148.646 122.75 147.771 123.896 147.062 125.312C146.396 126.729 145.854 128.354 145.438 130.188C145.062 131.979 144.771 133.792 144.562 135.625C144.354 137.458 144.229 139.229 144.188 140.938C144.146 142.604 144.125 144.021 144.125 145.188L157.312 137.625ZM211.652 127.312C213.236 124.896 214.923 122.708 216.715 120.75C217.465 119.917 218.277 119.104 219.152 118.312C220.027 117.521 220.923 116.812 221.84 116.188C222.798 115.562 223.777 115.062 224.777 114.688C225.777 114.312 226.777 114.125 227.777 114.125C229.902 114.125 231.569 114.771 232.777 116.062C233.986 117.312 234.59 119.083 234.59 121.375C234.59 122.792 234.465 124.167 234.215 125.5C234.007 126.792 233.569 128.375 232.902 130.25H231.152C230.902 128.958 230.319 127.896 229.402 127.062C228.486 126.188 227.152 125.75 225.402 125.75C224.111 125.75 222.84 126 221.59 126.5C220.34 126.958 219.111 127.542 217.902 128.25C216.736 128.958 215.611 129.729 214.527 130.562C213.486 131.396 212.527 132.188 211.652 132.938V173.5C211.652 174.042 211.569 174.688 211.402 175.438C211.236 176.188 210.819 176.896 210.152 177.562C209.527 178.229 208.569 178.792 207.277 179.25C206.027 179.75 204.298 180 202.09 180C199.882 180 198.132 179.729 196.84 179.188C195.59 178.688 194.632 178.083 193.965 177.375C193.298 176.667 192.882 175.938 192.715 175.188C192.548 174.438 192.465 173.833 192.465 173.375V125.125C192.465 123.917 192.173 122.875 191.59 122C191.048 121.083 190.111 120.625 188.777 120.625C188.069 120.625 187.465 120.75 186.965 121C186.465 121.25 185.923 121.604 185.34 122.062L184.027 120.5C184.986 119.708 186.048 118.938 187.215 118.188C188.423 117.396 189.715 116.708 191.09 116.125C192.465 115.542 193.944 115.062 195.527 114.688C197.111 114.312 198.777 114.125 200.527 114.125C202.319 114.125 203.84 114.375 205.09 114.875C206.382 115.333 207.423 115.958 208.215 116.75C209.048 117.5 209.694 118.354 210.152 119.312C210.611 120.271 210.944 121.25 211.152 122.25C211.402 123.208 211.548 124.146 211.59 125.062C211.632 125.938 211.652 126.688 211.652 127.312ZM283.492 135.75C282.201 135.75 281.117 135.562 280.242 135.188C279.367 134.771 278.659 134.229 278.117 133.562C277.576 132.896 277.18 132.167 276.93 131.375C276.68 130.542 276.555 129.688 276.555 128.812C276.555 127.688 276.617 126.604 276.742 125.562C276.909 124.521 276.93 123.583 276.805 122.75C276.722 121.917 276.409 121.25 275.867 120.75C275.326 120.25 274.367 120 272.992 120C271.534 120 269.992 120.417 268.367 121.25C266.742 122.083 265.263 123.396 263.93 125.188C262.597 126.979 261.492 129.292 260.617 132.125C259.742 134.917 259.305 138.292 259.305 142.25C259.305 146.625 259.701 150.625 260.492 154.25C261.326 157.833 262.555 160.896 264.18 163.438C265.805 165.979 267.826 167.958 270.242 169.375C272.659 170.75 275.492 171.438 278.742 171.438C280.201 171.438 281.576 171.271 282.867 170.938C284.201 170.604 285.451 170.146 286.617 169.562C287.784 168.979 288.888 168.312 289.93 167.562C291.013 166.771 292.055 165.938 293.055 165.062L294.617 166.562C293.659 167.854 292.43 169.271 290.93 170.812C289.43 172.354 287.617 173.812 285.492 175.188C283.367 176.521 280.888 177.646 278.055 178.562C275.222 179.438 271.992 179.875 268.367 179.875C264.742 179.875 261.201 179.188 257.742 177.812C254.326 176.396 251.284 174.354 248.617 171.688C245.951 169.021 243.805 165.792 242.18 162C240.597 158.167 239.805 153.812 239.805 148.938C239.805 145.146 240.284 141.667 241.242 138.5C242.201 135.292 243.492 132.396 245.117 129.812C246.784 127.229 248.701 124.958 250.867 123C253.076 121.042 255.388 119.417 257.805 118.125C260.222 116.792 262.68 115.792 265.18 115.125C267.722 114.458 270.159 114.125 272.492 114.125C275.576 114.125 278.263 114.479 280.555 115.188C282.847 115.896 284.742 116.833 286.242 118C287.784 119.167 288.93 120.521 289.68 122.062C290.43 123.562 290.805 125.125 290.805 126.75C290.805 127.958 290.638 129.125 290.305 130.25C290.013 131.333 289.555 132.292 288.93 133.125C288.347 133.917 287.597 134.562 286.68 135.062C285.763 135.521 284.701 135.75 283.492 135.75ZM323.02 150.312C323.02 151.646 323.207 153.104 323.582 154.688C323.999 156.229 324.582 157.792 325.332 159.375C326.082 160.958 326.999 162.479 328.082 163.938C329.207 165.354 330.478 166.625 331.895 167.75C333.353 168.875 334.957 169.771 336.707 170.438C338.457 171.104 340.374 171.438 342.457 171.438C343.916 171.438 345.27 171.271 346.52 170.938C347.77 170.604 348.937 170.146 350.02 169.562C351.103 168.979 352.145 168.312 353.145 167.562C354.145 166.771 355.145 165.938 356.145 165.062L357.707 166.562C356.749 167.854 355.52 169.271 354.02 170.812C352.52 172.354 350.707 173.812 348.582 175.188C346.457 176.521 343.978 177.646 341.145 178.562C338.312 179.438 335.082 179.875 331.457 179.875C327.832 179.875 324.291 179.229 320.832 177.938C317.416 176.604 314.374 174.625 311.707 172C309.041 169.375 306.895 166.104 305.27 162.188C303.687 158.271 302.895 153.688 302.895 148.438C302.895 144.646 303.374 141.167 304.332 138C305.291 134.833 306.582 131.979 308.207 129.438C309.874 126.896 311.791 124.667 313.957 122.75C316.166 120.833 318.478 119.25 320.895 118C323.312 116.708 325.77 115.75 328.27 115.125C330.812 114.458 333.249 114.125 335.582 114.125C338.666 114.125 341.353 114.458 343.645 115.125C345.937 115.792 347.832 116.688 349.332 117.812C350.874 118.938 352.02 120.25 352.77 121.75C353.52 123.208 353.895 124.75 353.895 126.375C353.895 128.333 353.332 130.104 352.207 131.688C351.082 133.229 349.582 134.583 347.707 135.75L323.02 150.312ZM335.582 137.625C336.124 137.292 336.562 136.979 336.895 136.688C337.27 136.354 337.562 135.979 337.77 135.562C337.978 135.104 338.124 134.562 338.207 133.938C338.332 133.271 338.395 132.458 338.395 131.5C338.395 130.458 338.27 129.312 338.02 128.062C337.812 126.771 337.437 125.562 336.895 124.438C336.353 123.312 335.666 122.375 334.832 121.625C333.999 120.875 332.999 120.5 331.832 120.5C330.332 120.5 329.041 120.958 327.957 121.875C326.916 122.75 326.041 123.896 325.332 125.312C324.666 126.729 324.124 128.354 323.707 130.188C323.332 131.979 323.041 133.792 322.832 135.625C322.624 137.458 322.499 139.229 322.457 140.938C322.416 142.604 322.395 144.021 322.395 145.188L335.582 137.625ZM406.735 147.875C406.735 142.625 406.485 138.438 405.985 135.312C405.527 132.146 404.902 129.75 404.11 128.125C403.318 126.458 402.443 125.375 401.485 124.875C400.527 124.333 399.547 124.062 398.547 124.062C397.339 124.062 396.256 124.396 395.297 125.062C394.381 125.688 393.568 126.417 392.86 127.25C392.193 128.083 391.61 128.917 391.11 129.75C390.652 130.583 390.256 131.208 389.922 131.625V173.375C389.922 173.917 389.839 174.583 389.672 175.375C389.506 176.125 389.089 176.854 388.422 177.562C387.797 178.229 386.839 178.792 385.547 179.25C384.297 179.75 382.568 180 380.36 180C378.152 180 376.402 179.729 375.11 179.188C373.86 178.688 372.902 178.083 372.235 177.375C371.568 176.667 371.152 175.938 370.985 175.188C370.818 174.438 370.735 173.833 370.735 173.375V125.125C370.735 123.917 370.443 122.875 369.86 122C369.318 121.083 368.381 120.625 367.047 120.625C366.339 120.625 365.735 120.75 365.235 121C364.735 121.25 364.193 121.604 363.61 122.062L362.297 120.5C363.256 119.708 364.318 118.938 365.485 118.188C366.693 117.396 367.985 116.708 369.36 116.125C370.735 115.542 372.214 115.062 373.797 114.688C375.381 114.312 377.047 114.125 378.797 114.125C381.506 114.125 383.61 114.583 385.11 115.5C386.61 116.375 387.714 117.438 388.422 118.688C389.131 119.938 389.547 121.25 389.672 122.625C389.839 123.958 389.922 125.083 389.922 126C391.464 123.792 393.214 121.812 395.172 120.062C395.964 119.312 396.839 118.583 397.797 117.875C398.797 117.167 399.839 116.542 400.922 116C402.047 115.417 403.214 114.958 404.422 114.625C405.672 114.292 406.943 114.125 408.235 114.125C411.068 114.125 413.568 114.667 415.735 115.75C417.943 116.833 419.797 118.646 421.297 121.188C422.797 123.729 423.943 127.104 424.735 131.312C425.527 135.479 425.922 140.667 425.922 146.875C425.922 152.917 425.381 158.167 424.297 162.625C423.214 167.083 421.797 170.875 420.047 174C418.297 177.125 416.318 179.667 414.11 181.625C411.902 183.625 409.672 185.188 407.422 186.312C405.172 187.438 403.006 188.208 400.922 188.625C398.881 189.083 397.11 189.333 395.61 189.375L394.922 186.812C396.172 186.521 397.318 186.062 398.36 185.438C399.443 184.812 400.422 183.896 401.297 182.688C402.172 181.479 402.943 179.958 403.61 178.125C404.277 176.25 404.839 173.917 405.297 171.125C405.797 168.333 406.152 165.042 406.36 161.25C406.61 157.417 406.735 152.958 406.735 147.875ZM462.95 119.5V165.688C462.95 167.896 463.367 169.438 464.2 170.312C465.033 171.146 466.179 171.562 467.638 171.562C468.763 171.562 469.763 171.25 470.638 170.625C471.513 170 472.263 169.292 472.888 168.5C473.638 167.625 474.283 166.604 474.825 165.438L476.763 166.312C476.138 167.646 475.388 169.104 474.513 170.688C473.679 172.271 472.554 173.75 471.138 175.125C469.721 176.458 467.929 177.583 465.763 178.5C463.638 179.417 460.95 179.875 457.7 179.875C455.867 179.875 454.096 179.604 452.388 179.062C450.721 178.521 449.221 177.667 447.888 176.5C446.596 175.333 445.554 173.875 444.763 172.125C443.971 170.375 443.575 168.271 443.575 165.812V119.5H436.575V115C437.742 115 439.367 114.708 441.45 114.125C443.533 113.5 445.658 112.479 447.825 111.062C450.033 109.646 452.075 107.75 453.95 105.375C455.825 103 457.158 100.062 457.95 96.5625H462.95V115H473.138C476.471 115 478.138 114.438 478.138 113.312C478.138 112.896 477.929 112.625 477.513 112.5C477.096 112.333 476.617 112.146 476.075 111.938C475.575 111.688 475.117 111.354 474.7 110.938C474.283 110.521 474.075 109.833 474.075 108.875C474.075 107.708 474.429 106.792 475.138 106.125C475.888 105.458 476.846 105.125 478.013 105.125C478.763 105.125 479.408 105.292 479.95 105.625C480.533 105.917 481.013 106.333 481.388 106.875C481.763 107.375 482.033 107.958 482.2 108.625C482.408 109.292 482.513 109.958 482.513 110.625C482.513 113.333 481.721 115.5 480.138 117.125C478.596 118.708 476.096 119.5 472.638 119.5H462.95Z" fill="#FF414D"/>
<line y1="-2" x2="51.2566" y2="-2" transform="matrix(0.682839 -0.730569 0.690194 0.723624 410 78.6929)" stroke="#FF414D" stroke-width="4"/>
<path d="M1.365 204.529H6.153C7.133 204.529 7.868 204.739 8.358 205.159C8.848 205.579 9.093 206.125 9.093 206.797C9.093 207.315 8.953 207.742 8.673 208.078C8.407 208.4 8.064 208.624 7.644 208.75C8.33 208.848 8.89 209.093 9.324 209.485C9.772 209.863 9.996 210.43 9.996 211.186C9.996 212.068 9.674 212.761 9.03 213.265C8.386 213.755 7.434 214 6.174 214H1.365V204.529ZM3.591 209.653V212.278H5.649C6.363 212.278 6.881 212.173 7.203 211.963C7.525 211.739 7.686 211.403 7.686 210.955C7.686 210.479 7.525 210.143 7.203 209.947C6.881 209.751 6.398 209.653 5.754 209.653H3.591ZM3.591 206.251V208.225H5.502C5.978 208.225 6.342 208.155 6.594 208.015C6.86 207.861 6.993 207.602 6.993 207.238C6.993 206.874 6.867 206.622 6.615 206.482C6.363 206.328 5.985 206.251 5.481 206.251H3.591ZM16.7496 214.168C16.1616 214.168 15.5946 214.056 15.0486 213.832C14.5166 213.594 14.0406 213.258 13.6206 212.824C13.2146 212.39 12.8856 211.872 12.6336 211.27C12.3816 210.668 12.2556 209.996 12.2556 209.254C12.2556 208.512 12.3746 207.84 12.6126 207.238C12.8646 206.636 13.1936 206.125 13.5996 205.705C14.0056 205.271 14.4816 204.942 15.0276 204.718C15.5736 204.48 16.1476 204.361 16.7496 204.361C17.5056 204.361 18.1636 204.508 18.7236 204.802C19.2976 205.096 19.7246 205.46 20.0046 205.894V204.529H22.1046V214H20.0046V212.572C19.6826 213.048 19.2346 213.433 18.6606 213.727C18.1006 214.021 17.4636 214.168 16.7496 214.168ZM17.2536 212.194C17.6456 212.194 18.0026 212.117 18.3246 211.963C18.6466 211.809 18.9196 211.606 19.1436 211.354C19.3816 211.088 19.5636 210.78 19.6896 210.43C19.8156 210.08 19.8786 209.702 19.8786 209.296V209.128C19.8786 208.736 19.8156 208.372 19.6896 208.036C19.5776 207.7 19.4096 207.406 19.1856 207.154C18.9616 206.902 18.6816 206.706 18.3456 206.566C18.0236 206.412 17.6596 206.335 17.2536 206.335C16.8896 206.335 16.5466 206.398 16.2246 206.524C15.9166 206.65 15.6436 206.839 15.4056 207.091C15.1676 207.329 14.9786 207.63 14.8386 207.994C14.6986 208.358 14.6286 208.778 14.6286 209.254C14.6286 210.15 14.8736 210.864 15.3636 211.396C15.8536 211.928 16.4836 212.194 17.2536 212.194ZM36.6983 204.529H38.9453V214H25.8623V204.529H28.0883V212.026H31.2803V204.529H33.5273V212.026H36.6983V204.529ZM49.1495 204.529H57.7176V214H55.4706V206.503H51.3755V214H49.1495V204.529ZM65.3134 214.168C64.7254 214.168 64.1584 214.056 63.6124 213.832C63.0804 213.594 62.6044 213.258 62.1844 212.824C61.7784 212.39 61.4494 211.872 61.1974 211.27C60.9454 210.668 60.8194 209.996 60.8194 209.254C60.8194 208.512 60.9384 207.84 61.1764 207.238C61.4284 206.636 61.7574 206.125 62.1634 205.705C62.5694 205.271 63.0454 204.942 63.5914 204.718C64.1374 204.48 64.7114 204.361 65.3134 204.361C66.0694 204.361 66.7274 204.508 67.2874 204.802C67.8614 205.096 68.2884 205.46 68.5684 205.894V204.529H70.6684V214H68.5684V212.572C68.2464 213.048 67.7984 213.433 67.2244 213.727C66.6644 214.021 66.0274 214.168 65.3134 214.168ZM65.8174 212.194C66.2094 212.194 66.5664 212.117 66.8884 211.963C67.2104 211.809 67.4834 211.606 67.7074 211.354C67.9454 211.088 68.1274 210.78 68.2534 210.43C68.3794 210.08 68.4424 209.702 68.4424 209.296V209.128C68.4424 208.736 68.3794 208.372 68.2534 208.036C68.1414 207.7 67.9734 207.406 67.7494 207.154C67.5254 206.902 67.2454 206.706 66.9094 206.566C66.5874 206.412 66.2234 206.335 65.8174 206.335C65.4534 206.335 65.1104 206.398 64.7884 206.524C64.4804 206.65 64.2074 206.839 63.9694 207.091C63.7314 207.329 63.5424 207.63 63.4024 207.994C63.2624 208.358 63.1924 208.778 63.1924 209.254C63.1924 210.15 63.4374 210.864 63.9274 211.396C64.4174 211.928 65.0474 212.194 65.8174 212.194ZM74.4261 219.04V204.529H76.5261V205.894C76.8061 205.46 77.2261 205.096 77.7861 204.802C78.3601 204.508 79.0251 204.361 79.7811 204.361C80.3831 204.361 80.9571 204.48 81.5031 204.718C82.0491 204.942 82.5251 205.271 82.9311 205.705C83.3371 206.125 83.6591 206.636 83.8971 207.238C84.1491 207.84 84.2751 208.512 84.2751 209.254C84.2751 209.996 84.1491 210.668 83.8971 211.27C83.6451 211.872 83.3091 212.39 82.8891 212.824C82.4831 213.258 82.0071 213.594 81.4611 213.832C80.9291 214.056 80.3691 214.168 79.7811 214.168C79.1091 214.168 78.5001 214.042 77.9541 213.79C77.4221 213.524 76.9881 213.174 76.6521 212.74V219.04H74.4261ZM79.2771 206.335C78.4791 206.335 77.8491 206.594 77.3871 207.112C76.9251 207.63 76.6801 208.267 76.6521 209.023V209.296C76.6521 209.702 76.7151 210.08 76.8411 210.43C76.9671 210.78 77.1421 211.088 77.3661 211.354C77.6041 211.606 77.8771 211.809 78.1851 211.963C78.5071 212.117 78.8711 212.194 79.2771 212.194C80.0471 212.194 80.6771 211.928 81.1671 211.396C81.6571 210.864 81.9021 210.15 81.9021 209.254C81.9021 208.778 81.8321 208.358 81.6921 207.994C81.5521 207.63 81.3631 207.329 81.1251 207.091C80.8871 206.839 80.6071 206.65 80.2851 206.524C79.9771 206.398 79.6411 206.335 79.2771 206.335ZM89.2161 206.503H86.1501V204.529H94.5291V206.503H91.4631V214H89.2161V206.503ZM103.875 210.052H99.5703V214H97.3443V204.529H99.5703V208.078H103.875V204.529H106.122V214H103.875V210.052ZM114.301 214.168C113.559 214.168 112.873 214.056 112.243 213.832C111.627 213.594 111.095 213.265 110.647 212.845C110.199 212.411 109.849 211.9 109.597 211.312C109.345 210.71 109.219 210.038 109.219 209.296C109.219 208.526 109.352 207.84 109.618 207.238C109.884 206.622 110.241 206.104 110.689 205.684C111.137 205.25 111.662 204.921 112.264 204.697C112.88 204.473 113.524 204.361 114.196 204.361C114.938 204.361 115.596 204.494 116.17 204.76C116.758 205.012 117.248 205.362 117.64 205.81C118.046 206.258 118.354 206.776 118.564 207.364C118.774 207.952 118.879 208.568 118.879 209.212V209.758H111.424C111.536 210.584 111.865 211.221 112.411 211.669C112.957 212.103 113.643 212.32 114.469 212.32C115.043 212.32 115.568 212.215 116.044 212.005C116.534 211.795 116.94 211.501 117.262 211.123L118.564 212.299C118.074 212.915 117.458 213.384 116.716 213.706C115.988 214.014 115.183 214.168 114.301 214.168ZM114.07 206.209C113.412 206.209 112.852 206.391 112.39 206.755C111.928 207.119 111.62 207.63 111.466 208.288H116.674C116.562 207.7 116.275 207.21 115.813 206.818C115.365 206.412 114.784 206.209 114.07 206.209ZM122.006 219.04V204.529H124.106V205.894C124.386 205.46 124.806 205.096 125.366 204.802C125.94 204.508 126.605 204.361 127.361 204.361C127.963 204.361 128.537 204.48 129.083 204.718C129.629 204.942 130.105 205.271 130.511 205.705C130.917 206.125 131.239 206.636 131.477 207.238C131.729 207.84 131.855 208.512 131.855 209.254C131.855 209.996 131.729 210.668 131.477 211.27C131.225 211.872 130.889 212.39 130.469 212.824C130.063 213.258 129.587 213.594 129.041 213.832C128.509 214.056 127.949 214.168 127.361 214.168C126.689 214.168 126.08 214.042 125.534 213.79C125.002 213.524 124.568 213.174 124.232 212.74V219.04H122.006ZM126.857 206.335C126.059 206.335 125.429 206.594 124.967 207.112C124.505 207.63 124.26 208.267 124.232 209.023V209.296C124.232 209.702 124.295 210.08 124.421 210.43C124.547 210.78 124.722 211.088 124.946 211.354C125.184 211.606 125.457 211.809 125.765 211.963C126.087 212.117 126.451 212.194 126.857 212.194C127.627 212.194 128.257 211.928 128.747 211.396C129.237 210.864 129.482 210.15 129.482 209.254C129.482 208.778 129.412 208.358 129.272 207.994C129.132 207.63 128.943 207.329 128.705 207.091C128.467 206.839 128.187 206.65 127.865 206.524C127.557 206.398 127.221 206.335 126.857 206.335ZM141.458 204.529H146.246C147.226 204.529 147.961 204.739 148.451 205.159C148.941 205.579 149.186 206.125 149.186 206.797C149.186 207.315 149.046 207.742 148.766 208.078C148.5 208.4 148.157 208.624 147.737 208.75C148.423 208.848 148.983 209.093 149.417 209.485C149.865 209.863 150.089 210.43 150.089 211.186C150.089 212.068 149.767 212.761 149.123 213.265C148.479 213.755 147.527 214 146.267 214H141.458V204.529ZM143.684 209.653V212.278H145.742C146.456 212.278 146.974 212.173 147.296 211.963C147.618 211.739 147.779 211.403 147.779 210.955C147.779 210.479 147.618 210.143 147.296 209.947C146.974 209.751 146.491 209.653 145.847 209.653H143.684ZM143.684 206.251V208.225H145.595C146.071 208.225 146.435 208.155 146.687 208.015C146.953 207.861 147.086 207.602 147.086 207.238C147.086 206.874 146.96 206.622 146.708 206.482C146.456 206.328 146.078 206.251 145.574 206.251H143.684ZM162.436 214.168C161.918 214.168 161.449 214.112 161.029 214C160.609 213.888 160.231 213.755 159.895 213.601C159.573 213.433 159.293 213.251 159.055 213.055C158.817 212.859 158.635 212.677 158.509 212.509L159.916 211.144C160.168 211.452 160.497 211.711 160.903 211.921C161.323 212.131 161.82 212.236 162.394 212.236C162.996 212.236 163.458 212.124 163.78 211.9C164.102 211.662 164.263 211.34 164.263 210.934C164.263 210.598 164.123 210.325 163.843 210.115C163.577 209.891 163.129 209.779 162.499 209.779H161.155V208.099H162.226C162.716 208.099 163.094 208.029 163.36 207.889C163.64 207.735 163.78 207.497 163.78 207.175C163.78 206.895 163.633 206.678 163.339 206.524C163.059 206.356 162.688 206.272 162.226 206.272C161.82 206.272 161.428 206.356 161.05 206.524C160.686 206.678 160.364 206.881 160.084 207.133L158.929 205.747C159.251 205.411 159.699 205.096 160.273 204.802C160.847 204.508 161.568 204.361 162.436 204.361C163.514 204.361 164.375 204.592 165.019 205.054C165.663 205.502 165.985 206.104 165.985 206.86C165.985 207.308 165.859 207.7 165.607 208.036C165.369 208.358 165.04 208.617 164.62 208.813C165.264 209.009 165.747 209.31 166.069 209.716C166.391 210.108 166.552 210.584 166.552 211.144C166.552 211.564 166.454 211.963 166.258 212.341C166.076 212.705 165.803 213.027 165.439 213.307C165.089 213.573 164.655 213.783 164.137 213.937C163.633 214.091 163.066 214.168 162.436 214.168ZM173.362 214.168C172.774 214.168 172.207 214.056 171.661 213.832C171.129 213.594 170.653 213.258 170.233 212.824C169.827 212.39 169.498 211.872 169.246 211.27C168.994 210.668 168.868 209.996 168.868 209.254C168.868 208.512 168.987 207.84 169.225 207.238C169.477 206.636 169.806 206.125 170.212 205.705C170.618 205.271 171.094 204.942 171.64 204.718C172.186 204.48 172.76 204.361 173.362 204.361C174.118 204.361 174.776 204.508 175.336 204.802C175.91 205.096 176.337 205.46 176.617 205.894V204.529H178.717V214H176.617V212.572C176.295 213.048 175.847 213.433 175.273 213.727C174.713 214.021 174.076 214.168 173.362 214.168ZM173.866 212.194C174.258 212.194 174.615 212.117 174.937 211.963C175.259 211.809 175.532 211.606 175.756 211.354C175.994 211.088 176.176 210.78 176.302 210.43C176.428 210.08 176.491 209.702 176.491 209.296V209.128C176.491 208.736 176.428 208.372 176.302 208.036C176.19 207.7 176.022 207.406 175.798 207.154C175.574 206.902 175.294 206.706 174.958 206.566C174.636 206.412 174.272 206.335 173.866 206.335C173.502 206.335 173.159 206.398 172.837 206.524C172.529 206.65 172.256 206.839 172.018 207.091C171.78 207.329 171.591 207.63 171.451 207.994C171.311 208.358 171.241 208.778 171.241 209.254C171.241 210.15 171.486 210.864 171.976 211.396C172.466 211.928 173.096 212.194 173.866 212.194ZM187.032 214.189C185.184 214.189 183.854 213.601 183.042 212.425C182.244 211.249 181.845 209.513 181.845 207.217C181.845 205.831 181.985 204.662 182.265 203.71C182.559 202.744 182.965 201.96 183.483 201.358C184.015 200.756 184.645 200.322 185.373 200.056C186.115 199.79 186.927 199.657 187.809 199.657C188.341 199.657 188.747 199.608 189.027 199.51C189.321 199.398 189.552 199.181 189.72 198.859L191.484 199.552C191.372 199.916 191.232 200.231 191.064 200.497C190.91 200.749 190.693 200.959 190.413 201.127C190.133 201.281 189.79 201.407 189.384 201.505C188.978 201.589 188.481 201.645 187.893 201.673C187.235 201.701 186.668 201.778 186.192 201.904C185.716 202.03 185.31 202.261 184.974 202.597C184.652 202.933 184.393 203.409 184.197 204.025C184.015 204.627 183.896 205.418 183.84 206.398C184.246 205.67 184.75 205.152 185.352 204.844C185.968 204.536 186.654 204.382 187.41 204.382C188.124 204.382 188.761 204.501 189.321 204.739C189.881 204.977 190.357 205.306 190.749 205.726C191.141 206.146 191.442 206.65 191.652 207.238C191.862 207.812 191.967 208.449 191.967 209.149C191.967 209.933 191.841 210.633 191.589 211.249C191.337 211.865 190.987 212.397 190.539 212.845C190.105 213.279 189.587 213.615 188.985 213.853C188.383 214.077 187.732 214.189 187.032 214.189ZM186.99 212.194C187.788 212.194 188.425 211.935 188.901 211.417C189.377 210.899 189.615 210.178 189.615 209.254C189.615 208.372 189.384 207.665 188.922 207.133C188.474 206.587 187.83 206.314 186.99 206.314C186.164 206.314 185.52 206.573 185.058 207.091C184.596 207.609 184.365 208.323 184.365 209.233C184.365 210.157 184.603 210.885 185.079 211.417C185.555 211.935 186.192 212.194 186.99 212.194ZM199.492 214.168C198.764 214.168 198.092 214.049 197.476 213.811C196.86 213.559 196.328 213.216 195.88 212.782C195.432 212.348 195.082 211.83 194.83 211.228C194.578 210.612 194.452 209.947 194.452 209.233C194.452 208.505 194.578 207.847 194.83 207.259C195.082 206.657 195.432 206.146 195.88 205.726C196.342 205.292 196.881 204.956 197.497 204.718C198.113 204.48 198.778 204.361 199.492 204.361C200.22 204.361 200.892 204.48 201.508 204.718C202.124 204.956 202.656 205.292 203.104 205.726C203.552 206.16 203.895 206.678 204.133 207.28C204.385 207.868 204.511 208.519 204.511 209.233C204.511 209.961 204.385 210.633 204.133 211.249C203.881 211.851 203.524 212.369 203.062 212.803C202.614 213.237 202.082 213.573 201.466 213.811C200.864 214.049 200.206 214.168 199.492 214.168ZM199.492 212.236C200.332 212.236 200.99 211.956 201.466 211.396C201.956 210.836 202.201 210.115 202.201 209.233C202.201 208.365 201.956 207.658 201.466 207.112C200.99 206.566 200.332 206.293 199.492 206.293C198.652 206.293 197.987 206.573 197.497 207.133C197.021 207.679 196.783 208.379 196.783 209.233C196.783 209.653 196.846 210.052 196.972 210.43C197.098 210.794 197.273 211.109 197.497 211.375C197.735 211.641 198.022 211.851 198.358 212.005C198.694 212.159 199.072 212.236 199.492 212.236ZM209.442 206.503H206.376V204.529H214.755V206.503H211.689V214H209.442V206.503ZM221.612 214.168C220.87 214.168 220.184 214.056 219.554 213.832C218.938 213.594 218.406 213.265 217.958 212.845C217.51 212.411 217.16 211.9 216.908 211.312C216.656 210.71 216.53 210.038 216.53 209.296C216.53 208.526 216.663 207.84 216.929 207.238C217.195 206.622 217.552 206.104 218 205.684C218.448 205.25 218.973 204.921 219.575 204.697C220.191 204.473 220.835 204.361 221.507 204.361C222.249 204.361 222.907 204.494 223.481 204.76C224.069 205.012 224.559 205.362 224.951 205.81C225.357 206.258 225.665 206.776 225.875 207.364C226.085 207.952 226.19 208.568 226.19 209.212V209.758H218.735C218.847 210.584 219.176 211.221 219.722 211.669C220.268 212.103 220.954 212.32 221.78 212.32C222.354 212.32 222.879 212.215 223.355 212.005C223.845 211.795 224.251 211.501 224.573 211.123L225.875 212.299C225.385 212.915 224.769 213.384 224.027 213.706C223.299 214.014 222.494 214.168 221.612 214.168ZM221.381 206.209C220.723 206.209 220.163 206.391 219.701 206.755C219.239 207.119 218.931 207.63 218.777 208.288H223.985C223.873 207.7 223.586 207.21 223.124 206.818C222.676 206.412 222.095 206.209 221.381 206.209ZM240.202 214.168C239.474 214.168 238.802 214.049 238.186 213.811C237.57 213.559 237.038 213.216 236.59 212.782C236.142 212.348 235.792 211.83 235.54 211.228C235.288 210.612 235.162 209.947 235.162 209.233C235.162 208.505 235.288 207.847 235.54 207.259C235.792 206.657 236.142 206.146 236.59 205.726C237.052 205.292 237.591 204.956 238.207 204.718C238.823 204.48 239.488 204.361 240.202 204.361C240.93 204.361 241.602 204.48 242.218 204.718C242.834 204.956 243.366 205.292 243.814 205.726C244.262 206.16 244.605 206.678 244.843 207.28C245.095 207.868 245.221 208.519 245.221 209.233C245.221 209.961 245.095 210.633 244.843 211.249C244.591 211.851 244.234 212.369 243.772 212.803C243.324 213.237 242.792 213.573 242.176 213.811C241.574 214.049 240.916 214.168 240.202 214.168ZM240.202 212.236C241.042 212.236 241.7 211.956 242.176 211.396C242.666 210.836 242.911 210.115 242.911 209.233C242.911 208.365 242.666 207.658 242.176 207.112C241.7 206.566 241.042 206.293 240.202 206.293C239.362 206.293 238.697 206.573 238.207 207.133C237.731 207.679 237.493 208.379 237.493 209.233C237.493 209.653 237.556 210.052 237.682 210.43C237.808 210.794 237.983 211.109 238.207 211.375C238.445 211.641 238.732 211.851 239.068 212.005C239.404 212.159 239.782 212.236 240.202 212.236ZM254.813 204.529H259.601C260.581 204.529 261.316 204.739 261.806 205.159C262.296 205.579 262.541 206.125 262.541 206.797C262.541 207.315 262.401 207.742 262.121 208.078C261.855 208.4 261.512 208.624 261.092 208.75C261.778 208.848 262.338 209.093 262.772 209.485C263.22 209.863 263.444 210.43 263.444 211.186C263.444 212.068 263.122 212.761 262.478 213.265C261.834 213.755 260.882 214 259.622 214H254.813V204.529ZM257.039 209.653V212.278H259.097C259.811 212.278 260.329 212.173 260.651 211.963C260.973 211.739 261.134 211.403 261.134 210.955C261.134 210.479 260.973 210.143 260.651 209.947C260.329 209.751 259.846 209.653 259.202 209.653H257.039ZM257.039 206.251V208.225H258.95C259.426 208.225 259.79 208.155 260.042 208.015C260.308 207.861 260.441 207.602 260.441 207.238C260.441 206.874 260.315 206.622 260.063 206.482C259.811 206.328 259.433 206.251 258.929 206.251H257.039ZM270.198 214.168C269.61 214.168 269.043 214.056 268.497 213.832C267.965 213.594 267.489 213.258 267.069 212.824C266.663 212.39 266.334 211.872 266.082 211.27C265.83 210.668 265.704 209.996 265.704 209.254C265.704 208.512 265.823 207.84 266.061 207.238C266.313 206.636 266.642 206.125 267.048 205.705C267.454 205.271 267.93 204.942 268.476 204.718C269.022 204.48 269.596 204.361 270.198 204.361C270.954 204.361 271.612 204.508 272.172 204.802C272.746 205.096 273.173 205.46 273.453 205.894V204.529H275.553V214H273.453V212.572C273.131 213.048 272.683 213.433 272.109 213.727C271.549 214.021 270.912 214.168 270.198 214.168ZM270.702 212.194C271.094 212.194 271.451 212.117 271.773 211.963C272.095 211.809 272.368 211.606 272.592 211.354C272.83 211.088 273.012 210.78 273.138 210.43C273.264 210.08 273.327 209.702 273.327 209.296V209.128C273.327 208.736 273.264 208.372 273.138 208.036C273.026 207.7 272.858 207.406 272.634 207.154C272.41 206.902 272.13 206.706 271.794 206.566C271.472 206.412 271.108 206.335 270.702 206.335C270.338 206.335 269.995 206.398 269.673 206.524C269.365 206.65 269.092 206.839 268.854 207.091C268.616 207.329 268.427 207.63 268.287 207.994C268.147 208.358 268.077 208.778 268.077 209.254C268.077 210.15 268.322 210.864 268.812 211.396C269.302 211.928 269.932 212.194 270.702 212.194ZM283.637 214.168C282.881 214.168 282.195 214.049 281.579 213.811C280.977 213.559 280.459 213.216 280.025 212.782C279.591 212.348 279.255 211.83 279.017 211.228C278.793 210.626 278.681 209.968 278.681 209.254C278.681 208.484 278.807 207.798 279.059 207.196C279.311 206.594 279.661 206.083 280.109 205.663C280.557 205.243 281.082 204.921 281.684 204.697C282.286 204.473 282.937 204.361 283.637 204.361C284.421 204.361 285.135 204.494 285.779 204.76C286.423 205.012 286.948 205.355 287.354 205.789L286.157 207.364C285.877 207.042 285.534 206.783 285.128 206.587C284.722 206.391 284.274 206.293 283.784 206.293C282.972 206.293 282.307 206.559 281.789 207.091C281.271 207.623 281.012 208.33 281.012 209.212C281.012 209.66 281.082 210.066 281.222 210.43C281.362 210.794 281.558 211.116 281.81 211.396C282.062 211.662 282.363 211.872 282.713 212.026C283.063 212.166 283.448 212.236 283.868 212.236C284.372 212.236 284.82 212.138 285.212 211.942C285.604 211.732 285.94 211.466 286.22 211.144L287.543 212.467C287.137 212.999 286.598 213.419 285.926 213.727C285.254 214.021 284.491 214.168 283.637 214.168ZM296.835 204.529H299.061V210.388L303.891 204.529H305.529V214H303.303V207.91L298.284 214H296.835V204.529ZM315.754 204.529H320.542C321.522 204.529 322.257 204.739 322.747 205.159C323.237 205.579 323.482 206.125 323.482 206.797C323.482 207.315 323.342 207.742 323.062 208.078C322.796 208.4 322.453 208.624 322.033 208.75C322.719 208.848 323.279 209.093 323.713 209.485C324.161 209.863 324.385 210.43 324.385 211.186C324.385 212.068 324.063 212.761 323.419 213.265C322.775 213.755 321.823 214 320.563 214H315.754V204.529ZM317.98 209.653V212.278H320.038C320.752 212.278 321.27 212.173 321.592 211.963C321.914 211.739 322.075 211.403 322.075 210.955C322.075 210.479 321.914 210.143 321.592 209.947C321.27 209.751 320.787 209.653 320.143 209.653H317.98ZM317.98 206.251V208.225H319.891C320.367 208.225 320.731 208.155 320.983 208.015C321.249 207.861 321.382 207.602 321.382 207.238C321.382 206.874 321.256 206.622 321.004 206.482C320.752 206.328 320.374 206.251 319.87 206.251H317.98ZM331.139 214.168C330.551 214.168 329.984 214.056 329.438 213.832C328.906 213.594 328.43 213.258 328.01 212.824C327.604 212.39 327.275 211.872 327.023 211.27C326.771 210.668 326.645 209.996 326.645 209.254C326.645 208.512 326.764 207.84 327.002 207.238C327.254 206.636 327.583 206.125 327.989 205.705C328.395 205.271 328.871 204.942 329.417 204.718C329.963 204.48 330.537 204.361 331.139 204.361C331.895 204.361 332.553 204.508 333.113 204.802C333.687 205.096 334.114 205.46 334.394 205.894V204.529H336.494V214H334.394V212.572C334.072 213.048 333.624 213.433 333.05 213.727C332.49 214.021 331.853 214.168 331.139 214.168ZM331.643 212.194C332.035 212.194 332.392 212.117 332.714 211.963C333.036 211.809 333.309 211.606 333.533 211.354C333.771 211.088 333.953 210.78 334.079 210.43C334.205 210.08 334.268 209.702 334.268 209.296V209.128C334.268 208.736 334.205 208.372 334.079 208.036C333.967 207.7 333.799 207.406 333.575 207.154C333.351 206.902 333.071 206.706 332.735 206.566C332.413 206.412 332.049 206.335 331.643 206.335C331.279 206.335 330.936 206.398 330.614 206.524C330.306 206.65 330.033 206.839 329.795 207.091C329.557 207.329 329.368 207.63 329.228 207.994C329.088 208.358 329.018 208.778 329.018 209.254C329.018 210.15 329.263 210.864 329.753 211.396C330.243 211.928 330.873 212.194 331.643 212.194ZM351.088 204.529H353.335V214H340.252V204.529H342.478V212.026H345.67V204.529H347.917V212.026H351.088V204.529ZM361.515 214.168C360.773 214.168 360.087 214.056 359.457 213.832C358.841 213.594 358.309 213.265 357.861 212.845C357.413 212.411 357.063 211.9 356.811 211.312C356.559 210.71 356.433 210.038 356.433 209.296C356.433 208.526 356.566 207.84 356.832 207.238C357.098 206.622 357.455 206.104 357.903 205.684C358.351 205.25 358.876 204.921 359.478 204.697C360.094 204.473 360.738 204.361 361.41 204.361C362.152 204.361 362.81 204.494 363.384 204.76C363.972 205.012 364.462 205.362 364.854 205.81C365.26 206.258 365.568 206.776 365.778 207.364C365.988 207.952 366.093 208.568 366.093 209.212V209.758H358.638C358.75 210.584 359.079 211.221 359.625 211.669C360.171 212.103 360.857 212.32 361.683 212.32C362.257 212.32 362.782 212.215 363.258 212.005C363.748 211.795 364.154 211.501 364.476 211.123L365.778 212.299C365.288 212.915 364.672 213.384 363.93 213.706C363.202 214.014 362.397 214.168 361.515 214.168ZM361.284 206.209C360.626 206.209 360.066 206.391 359.604 206.755C359.142 207.119 358.834 207.63 358.68 208.288H363.888C363.776 207.7 363.489 207.21 363.027 206.818C362.579 206.412 361.998 206.209 361.284 206.209ZM370.02 204.529H371.826L374.556 210.43L377.16 204.529H378.987L380.604 214H378.504L377.538 208.12L374.871 214H374.01L371.364 208.225L370.419 214H368.403L370.02 204.529ZM393.089 214.168C392.571 214.168 392.102 214.112 391.682 214C391.262 213.888 390.884 213.755 390.548 213.601C390.226 213.433 389.946 213.251 389.708 213.055C389.47 212.859 389.288 212.677 389.162 212.509L390.569 211.144C390.821 211.452 391.15 211.711 391.556 211.921C391.976 212.131 392.473 212.236 393.047 212.236C393.649 212.236 394.111 212.124 394.433 211.9C394.755 211.662 394.916 211.34 394.916 210.934C394.916 210.598 394.776 210.325 394.496 210.115C394.23 209.891 393.782 209.779 393.152 209.779H391.808V208.099H392.879C393.369 208.099 393.747 208.029 394.013 207.889C394.293 207.735 394.433 207.497 394.433 207.175C394.433 206.895 394.286 206.678 393.992 206.524C393.712 206.356 393.341 206.272 392.879 206.272C392.473 206.272 392.081 206.356 391.703 206.524C391.339 206.678 391.017 206.881 390.737 207.133L389.582 205.747C389.904 205.411 390.352 205.096 390.926 204.802C391.5 204.508 392.221 204.361 393.089 204.361C394.167 204.361 395.028 204.592 395.672 205.054C396.316 205.502 396.638 206.104 396.638 206.86C396.638 207.308 396.512 207.7 396.26 208.036C396.022 208.358 395.693 208.617 395.273 208.813C395.917 209.009 396.4 209.31 396.722 209.716C397.044 210.108 397.205 210.584 397.205 211.144C397.205 211.564 397.107 211.963 396.911 212.341C396.729 212.705 396.456 213.027 396.092 213.307C395.742 213.573 395.308 213.783 394.79 213.937C394.286 214.091 393.719 214.168 393.089 214.168ZM399.098 212.026H400.211C400.575 211.298 400.855 210.472 401.051 209.548C401.247 208.61 401.345 207.49 401.345 206.188V204.529H408.485V212.026H410.039V216.205H408.149V214H400.967V216.205H399.098V212.026ZM403.382 206.965C403.382 207.987 403.305 208.911 403.151 209.737C402.997 210.563 402.773 211.326 402.479 212.026H406.238V206.503H403.382V206.965ZM416.902 214.168C416.174 214.168 415.502 214.049 414.886 213.811C414.27 213.559 413.738 213.216 413.29 212.782C412.842 212.348 412.492 211.83 412.24 211.228C411.988 210.612 411.862 209.947 411.862 209.233C411.862 208.505 411.988 207.847 412.24 207.259C412.492 206.657 412.842 206.146 413.29 205.726C413.752 205.292 414.291 204.956 414.907 204.718C415.523 204.48 416.188 204.361 416.902 204.361C417.63 204.361 418.302 204.48 418.918 204.718C419.534 204.956 420.066 205.292 420.514 205.726C420.962 206.16 421.305 206.678 421.543 207.28C421.795 207.868 421.921 208.519 421.921 209.233C421.921 209.961 421.795 210.633 421.543 211.249C421.291 211.851 420.934 212.369 420.472 212.803C420.024 213.237 419.492 213.573 418.876 213.811C418.274 214.049 417.616 214.168 416.902 214.168ZM416.902 212.236C417.742 212.236 418.4 211.956 418.876 211.396C419.366 210.836 419.611 210.115 419.611 209.233C419.611 208.365 419.366 207.658 418.876 207.112C418.4 206.566 417.742 206.293 416.902 206.293C416.062 206.293 415.397 206.573 414.907 207.133C414.431 207.679 414.193 208.379 414.193 209.233C414.193 209.653 414.256 210.052 414.382 210.43C414.508 210.794 414.683 211.109 414.907 211.375C415.145 211.641 415.432 211.851 415.768 212.005C416.104 212.159 416.482 212.236 416.902 212.236ZM425.038 219.04V204.529H427.138V205.894C427.418 205.46 427.838 205.096 428.398 204.802C428.972 204.508 429.637 204.361 430.393 204.361C430.995 204.361 431.569 204.48 432.115 204.718C432.661 204.942 433.137 205.271 433.543 205.705C433.949 206.125 434.271 206.636 434.509 207.238C434.761 207.84 434.887 208.512 434.887 209.254C434.887 209.996 434.761 210.668 434.509 211.27C434.257 211.872 433.921 212.39 433.501 212.824C433.095 213.258 432.619 213.594 432.073 213.832C431.541 214.056 430.981 214.168 430.393 214.168C429.721 214.168 429.112 214.042 428.566 213.79C428.034 213.524 427.6 213.174 427.264 212.74V219.04H425.038ZM429.889 206.335C429.091 206.335 428.461 206.594 427.999 207.112C427.537 207.63 427.292 208.267 427.264 209.023V209.296C427.264 209.702 427.327 210.08 427.453 210.43C427.579 210.78 427.754 211.088 427.978 211.354C428.216 211.606 428.489 211.809 428.797 211.963C429.119 212.117 429.483 212.194 429.889 212.194C430.659 212.194 431.289 211.928 431.779 211.396C432.269 210.864 432.514 210.15 432.514 209.254C432.514 208.778 432.444 208.358 432.304 207.994C432.164 207.63 431.975 207.329 431.737 207.091C431.499 206.839 431.219 206.65 430.897 206.524C430.589 206.398 430.253 206.335 429.889 206.335ZM442.425 214.168C441.697 214.168 441.025 214.049 440.409 213.811C439.793 213.559 439.261 213.216 438.813 212.782C438.365 212.348 438.015 211.83 437.763 211.228C437.511 210.612 437.385 209.947 437.385 209.233C437.385 208.505 437.511 207.847 437.763 207.259C438.015 206.657 438.365 206.146 438.813 205.726C439.275 205.292 439.814 204.956 440.43 204.718C441.046 204.48 441.711 204.361 442.425 204.361C443.153 204.361 443.825 204.48 444.441 204.718C445.057 204.956 445.589 205.292 446.037 205.726C446.485 206.16 446.828 206.678 447.066 207.28C447.318 207.868 447.444 208.519 447.444 209.233C447.444 209.961 447.318 210.633 447.066 211.249C446.814 211.851 446.457 212.369 445.995 212.803C445.547 213.237 445.015 213.573 444.399 213.811C443.797 214.049 443.139 214.168 442.425 214.168ZM442.425 212.236C443.265 212.236 443.923 211.956 444.399 211.396C444.889 210.836 445.134 210.115 445.134 209.233C445.134 208.365 444.889 207.658 444.399 207.112C443.923 206.566 443.265 206.293 442.425 206.293C441.585 206.293 440.92 206.573 440.43 207.133C439.954 207.679 439.716 208.379 439.716 209.233C439.716 209.653 439.779 210.052 439.905 210.43C440.031 210.794 440.206 211.109 440.43 211.375C440.668 211.641 440.955 211.851 441.291 212.005C441.627 212.159 442.005 212.236 442.425 212.236ZM450.561 204.529H455.349C456.329 204.529 457.064 204.739 457.554 205.159C458.044 205.579 458.289 206.125 458.289 206.797C458.289 207.315 458.149 207.742 457.869 208.078C457.603 208.4 457.26 208.624 456.84 208.75C457.526 208.848 458.086 209.093 458.52 209.485C458.968 209.863 459.192 210.43 459.192 211.186C459.192 212.068 458.87 212.761 458.226 213.265C457.582 213.755 456.63 214 455.37 214H450.561V204.529ZM452.787 209.653V212.278H454.845C455.559 212.278 456.077 212.173 456.399 211.963C456.721 211.739 456.882 211.403 456.882 210.955C456.882 210.479 456.721 210.143 456.399 209.947C456.077 209.751 455.594 209.653 454.95 209.653H452.787ZM452.787 206.251V208.225H454.698C455.174 208.225 455.538 208.155 455.79 208.015C456.056 207.861 456.189 207.602 456.189 207.238C456.189 206.874 456.063 206.622 455.811 206.482C455.559 206.328 455.181 206.251 454.677 206.251H452.787ZM462.082 204.529H464.308V207.406H466.135C467.451 207.406 468.445 207.672 469.117 208.204C469.803 208.736 470.146 209.555 470.146 210.661C470.146 211.753 469.796 212.586 469.096 213.16C468.41 213.72 467.353 214 465.925 214H462.082V204.529ZM465.673 212.194C466.345 212.194 466.877 212.096 467.269 211.9C467.675 211.704 467.878 211.291 467.878 210.661C467.878 210.115 467.696 209.737 467.332 209.527C466.982 209.317 466.464 209.212 465.778 209.212H464.308V212.194H465.673ZM477.624 214.168C476.882 214.168 476.196 214.056 475.566 213.832C474.95 213.594 474.418 213.265 473.97 212.845C473.522 212.411 473.172 211.9 472.92 211.312C472.668 210.71 472.542 210.038 472.542 209.296C472.542 208.526 472.675 207.84 472.941 207.238C473.207 206.622 473.564 206.104 474.012 205.684C474.46 205.25 474.985 204.921 475.587 204.697C476.203 204.473 476.847 204.361 477.519 204.361C478.261 204.361 478.919 204.494 479.493 204.76C480.081 205.012 480.571 205.362 480.963 205.81C481.369 206.258 481.677 206.776 481.887 207.364C482.097 207.952 482.202 208.568 482.202 209.212V209.758H474.747C474.859 210.584 475.188 211.221 475.734 211.669C476.28 212.103 476.966 212.32 477.792 212.32C478.366 212.32 478.891 212.215 479.367 212.005C479.857 211.795 480.263 211.501 480.585 211.123L481.887 212.299C481.397 212.915 480.781 213.384 480.039 213.706C479.311 214.014 478.506 214.168 477.624 214.168ZM477.393 206.209C476.735 206.209 476.175 206.391 475.713 206.755C475.251 207.119 474.943 207.63 474.789 208.288H479.997C479.885 207.7 479.598 207.21 479.136 206.818C478.688 206.412 478.107 206.209 477.393 206.209Z" fill="#2B1B1B"/>
</svg>
