<svg width="54" height="54" viewBox="0 0 54 54" fill="none" xmlns="http://www.w3.org/2000/svg">
<path fill-rule="evenodd" clip-rule="evenodd" d="M27 7.875C16.4543 7.875 7.875 16.4543 7.875 27C7.875 37.5457 16.4543 46.125 27 46.125C37.5457 46.125 46.125 37.5457 46.125 27C46.125 16.4543 37.5457 7.875 27 7.875M27 49.5C14.5935 49.5 4.5 39.4065 4.5 27C4.5 14.5935 14.5935 4.5 27 4.5C39.4065 4.5 49.5 14.5935 49.5 27C49.5 39.4065 39.4065 49.5 27 49.5" fill="#FF414D"/>
<path fill-rule="evenodd" clip-rule="evenodd" d="M34.8114 31.933C34.3794 31.933 33.9451 31.7687 33.6166 31.4357L26.9994 24.7915L20.3866 31.4357C19.7296 32.0972 18.6609 32.0972 17.9994 31.4402C17.3401 30.7832 17.3356 29.7167 17.9949 29.0552L25.8046 21.2095C26.4369 20.5727 27.5619 20.5727 28.1964 21.2095L36.0061 29.0552C36.6631 29.7167 36.6609 30.7832 36.0016 31.4402C35.6731 31.7687 35.2411 31.933 34.8114 31.933" fill="#FF414D"/>
</svg>
