<svg width="233" height="110" viewBox="0 0 233 110" fill="none" xmlns="http://www.w3.org/2000/svg">
<path d="M160 35.6016C160.344 35.2422 160.602 34.8359 160.773 34.3828C160.961 33.9141 161.039 33.4531 161.008 33C160.695 33.9219 160.25 34.6875 159.672 35.2969C159.375 35.6094 159.031 35.875 158.641 36.0938C158.266 36.3125 157.844 36.4688 157.375 36.5625C157.844 36.6562 158.312 36.6094 158.781 36.4219C159.234 36.25 159.641 35.9766 160 35.6016ZM157.492 31.3828C157.102 31.5859 156.789 31.9219 156.555 32.3906C156.32 32.8438 156.242 33.2969 156.32 33.75C156.383 34.1875 156.578 34.4922 156.906 34.6641C157.25 34.8359 157.617 34.8203 158.008 34.6172C158.414 34.4141 158.734 34.0781 158.969 33.6094C159.203 33.1562 159.281 32.7031 159.203 32.25C159.141 31.8125 158.938 31.5078 158.594 31.3359C158.266 31.1641 157.898 31.1797 157.492 31.3828ZM150.227 25.125C150.977 24.2969 151.891 23.6328 152.969 23.1328C153.875 22.6953 154.977 22.3828 156.273 22.1953C155.758 22.1953 155.18 22.2422 154.539 22.3359C153.945 22.4453 153.375 22.6094 152.828 22.8281C151.719 23.25 150.742 23.9141 149.898 24.8203C149.086 25.6953 148.453 26.6953 148 27.8203C147.797 28.3516 147.617 28.9141 147.461 29.5078C147.305 30.1641 147.195 30.7344 147.133 31.2188C147.492 29.9375 147.891 28.8516 148.328 27.9609C148.859 26.8359 149.492 25.8906 150.227 25.125ZM149.57 22.9688C151.617 21.2031 154.211 20.3359 157.352 20.3672C160.336 20.4141 162.758 21.25 164.617 22.875C166.305 24.375 167.289 26.2891 167.57 28.6172C167.852 30.9141 167.398 33.125 166.211 35.25C164.93 37.5312 163.023 39.2656 160.492 40.4531C159.727 40.8125 159.234 41.3125 159.016 41.9531C158.859 42.4688 158.852 43.1797 158.992 44.0859C159.008 44.2578 159.039 44.4609 159.086 44.6953L159.227 45.3516C159.336 45.9453 159.414 46.4062 159.461 46.7344C159.633 47.8906 159.664 48.9219 159.555 49.8281C159.383 51.1406 158.891 52.1875 158.078 52.9688C157.25 53.75 156.258 54.0859 155.102 53.9766C153.836 53.8672 152.578 53.2266 151.328 52.0547C149.922 50.7266 148.641 48.8281 147.484 46.3594C146.281 43.7969 145.508 41.0234 145.164 38.0391C144.82 34.9609 144.992 32.1328 145.68 29.5547C146.43 26.7266 147.727 24.5312 149.57 22.9688Z" fill="#F64E4E"/>
<path d="M86.9297 33.6484L87.3281 33.6953C87.8906 33.7734 88.4297 33.8828 88.9453 34.0234C88.5234 33.7266 88.0078 33.5 87.3984 33.3438C87.1953 33.2969 86.9219 33.25 86.5781 33.2031L85.7109 33.1797C85.4766 33.1641 85.2031 33.1719 84.8906 33.2031L84.4688 33.25L84.0703 33.2969C83.4297 33.375 82.8828 33.4766 82.4297 33.6016C82.8984 33.6328 83.4531 33.6484 84.0938 33.6484H84.4922L84.9141 33.625H85.3125H85.7344H86.5312L86.9297 33.6484ZM73.5469 26.2656L74.9062 25.4453L75.5625 25L76.2422 24.5547L75.5156 24.8828L74.7891 25.2344L73.3594 25.9844C72.4375 26.4375 71.5625 27.0625 70.7344 27.8594C69.9062 28.6562 69.25 29.5078 68.7656 30.4141C68.4688 30.9922 68.2578 31.4922 68.1328 31.9141C67.9609 32.5234 67.8672 33.0547 67.8516 33.5078C68.0703 32.4922 68.4766 31.5234 69.0703 30.6016C69.6328 29.6953 70.2891 28.8828 71.0391 28.1641C71.7734 27.4609 72.6094 26.8281 73.5469 26.2656ZM71.7422 13.1875C72.3047 12.7813 73.0156 12.4375 73.875 12.1562C74.5469 11.9531 75.3281 11.7734 76.2188 11.6172L77.4141 11.4062L78.6328 11.2422C76.8516 11.1172 75.2188 11.2813 73.7344 11.7344C72.8125 12.0313 72.0781 12.4297 71.5312 12.9297C71.2188 13.1797 70.9531 13.5078 70.7344 13.9141C70.5469 14.2734 70.4453 14.6719 70.4297 15.1094C70.6016 14.3281 71.0391 13.6875 71.7422 13.1875ZM84.1875 31.6562C84.5938 31.625 84.9609 31.6094 85.2891 31.6094C87.4609 31.5156 89.2422 31.9609 90.6328 32.9453C92.1953 34.0391 92.875 35.6016 92.6719 37.6328C92.5156 39.2891 91.5391 40.5781 89.7422 41.5C88.1953 42.2969 86.1406 42.7734 83.5781 42.9297C81.3281 43.0859 78.9922 42.9766 76.5703 42.6016C74.2891 42.2578 72.4766 41.7812 71.1328 41.1719C69.1172 40.2344 67.6875 39.0078 66.8438 37.4922C66.0781 36.1328 65.8359 34.625 66.1172 32.9688C66.3672 31.4375 67.0312 29.9375 68.1094 28.4688C69.1562 27.0469 70.4375 25.8594 71.9531 24.9062C73.0938 24.2031 74.2578 23.5469 75.4453 22.9375C75.8984 22.7031 76.375 22.4688 76.875 22.2344C77.2188 22.0625 77.6172 21.875 78.0703 21.6719C78.9609 21.2656 79.5078 21.0078 79.7109 20.8984C80.0703 20.6953 80.2344 20.5312 80.2031 20.4062C80.1406 20.1406 79.75 20.0156 79.0312 20.0312C78.8906 20.0312 78.7109 20.0391 78.4922 20.0547H78.1875L77.8594 20.0781C77.2812 20.0938 76.7734 20.1016 76.3359 20.1016C75.4453 20.0859 74.5938 20.0078 73.7812 19.8672C72.7812 19.6797 71.9141 19.4141 71.1797 19.0703C69.2891 18.1797 68.4453 16.7969 68.6484 14.9219C68.8516 12.9375 70.1016 11.4766 72.3984 10.5391C74.6484 9.61719 77.7422 9.27344 81.6797 9.50781C85.1484 9.71094 87.9141 10.5156 89.9766 11.9219C92.0547 13.3281 93.125 15.1719 93.1875 17.4531C93.2344 19.3281 92.5469 21.1016 91.125 22.7734C90.0469 24.0547 88.4609 25.3438 86.3672 26.6406C85.7109 27.0625 84.8672 27.5625 83.8359 28.1406L83.2266 28.4688L82.6641 28.7969C82.2422 29.0312 81.8906 29.2344 81.6094 29.4062C80.1719 30.2656 79.4688 30.9297 79.5 31.3984C79.5156 31.7578 80.1094 31.9141 81.2812 31.8672C81.6094 31.8516 82.2266 31.8125 83.1328 31.75C83.5703 31.7031 83.9219 31.6719 84.1875 31.6562ZM103.647 36.5312L103.881 36.4531C104.579 36.2344 105.199 36.0677 105.741 35.9531C105.459 35.901 105.131 35.901 104.756 35.9531C104.465 35.9844 104.142 36.0573 103.788 36.1719C103.663 36.2031 103.506 36.2604 103.319 36.3438L103.1 36.4219L102.881 36.5156C102.579 36.6198 102.267 36.7031 101.944 36.7656C102.246 36.8281 102.579 36.8177 102.944 36.7344C103.069 36.7135 103.23 36.6719 103.428 36.6094L103.647 36.5312ZM97.8344 22.5312C98.2198 22.3125 98.6521 22.1406 99.1313 22.0156C99.5271 21.901 99.9958 21.8229 100.538 21.7812C100.09 21.75 99.6104 21.7812 99.1 21.875C98.6 21.9688 98.1417 22.1198 97.725 22.3281C97.2979 22.5365 96.8969 22.8125 96.5219 23.1562C96.199 23.4583 95.9021 23.8542 95.6313 24.3438C95.2042 25.1146 94.8813 26.026 94.6625 27.0781C94.475 27.9844 94.376 28.9375 94.3656 29.9375L94.4594 29.2188C94.501 28.9479 94.5427 28.7135 94.5844 28.5156C94.6781 28.026 94.7823 27.5625 94.8969 27.125C95.1781 26.0417 95.5115 25.1615 95.8969 24.4844C96.1469 24.0365 96.4177 23.6667 96.7094 23.375C97.0115 23.0729 97.3865 22.7917 97.8344 22.5312ZM102.131 30.3125L102.022 30.3594L101.772 30.4375L101.538 30.5156C101.683 30.5677 101.855 30.5885 102.053 30.5781C102.126 30.5781 102.215 30.5677 102.319 30.5469L102.444 30.5312L102.553 30.5156C102.699 30.4948 102.855 30.4792 103.022 30.4688C103.22 30.4688 103.386 30.4844 103.522 30.5156C103.428 30.3802 103.272 30.2865 103.053 30.2344C102.897 30.1927 102.715 30.1875 102.506 30.2188C102.433 30.2292 102.35 30.25 102.256 30.2812L102.131 30.3125ZM101.459 35.4688C101.834 35.6146 102.293 35.5833 102.834 35.375C104.605 34.7083 105.991 34.5677 106.991 34.9531C107.939 35.3177 108.407 36.099 108.397 37.2969C108.386 38.1927 107.954 39.0885 107.1 39.9844C106.277 40.8281 105.225 41.526 103.944 42.0781C102.631 42.651 101.334 42.9583 100.053 43C98.6469 43.0417 97.4646 42.75 96.5063 42.125C95.5167 41.4896 94.7146 40.2656 94.1 38.4531C93.5271 36.7656 93.1938 34.8385 93.1 32.6719C93.0167 30.4948 93.1938 28.5 93.6313 26.6875C94.1104 24.7188 94.8292 23.2812 95.7875 22.375C96.8292 21.3958 98.0896 20.8125 99.5688 20.625C100.881 20.4688 102.189 20.625 103.491 21.0938C104.73 21.5521 105.668 22.1823 106.303 22.9844C106.97 23.8281 107.121 24.6615 106.756 25.4844C106.548 25.9635 106.178 26.3125 105.647 26.5312C105.272 26.6875 104.735 26.7917 104.038 26.8438L103.616 26.875L103.178 26.8906C102.834 26.9115 102.558 26.9375 102.35 26.9688C101.746 27.0417 101.298 27.1875 101.006 27.4062C100.808 27.5521 100.673 27.75 100.6 28C100.538 28.2396 100.543 28.474 100.616 28.7031C100.814 29.2448 101.256 29.4271 101.944 29.25C102.756 29.0417 103.454 29.099 104.038 29.4219C104.61 29.7344 104.918 30.2135 104.959 30.8594C105.001 31.5573 104.777 32.1302 104.288 32.5781C103.746 33.0677 102.918 33.3646 101.803 33.4688C101.428 33.5104 101.147 33.6719 100.959 33.9531C100.793 34.224 100.751 34.5104 100.834 34.8125C100.928 35.1354 101.136 35.3542 101.459 35.4688ZM117.797 31.4531C118.089 31.3385 118.354 31.1615 118.594 30.9219C119.062 30.401 119.24 29.8177 119.125 29.1719C118.969 29.8073 118.714 30.3177 118.359 30.7031C117.974 31.1302 117.479 31.4062 116.875 31.5312C117.177 31.5938 117.484 31.5677 117.797 31.4531ZM116.203 28.2188C116.005 28.4479 115.896 28.7292 115.875 29.0625C115.865 29.3958 115.958 29.6823 116.156 29.9219C116.344 30.1719 116.578 30.3021 116.859 30.3125C117.13 30.3229 117.37 30.2135 117.578 29.9844C117.786 29.7552 117.896 29.474 117.906 29.1406C117.917 28.8073 117.828 28.5156 117.641 28.2656C117.453 28.026 117.219 27.901 116.938 27.8906C116.656 27.8802 116.411 27.9896 116.203 28.2188ZM112.484 23.875C113.026 23.25 113.625 22.7708 114.281 22.4375C114.927 22.1042 115.672 21.901 116.516 21.8281C116.151 21.7969 115.755 21.8125 115.328 21.875C114.932 21.9479 114.547 22.0677 114.172 22.2344C113.484 22.526 112.844 23.0052 112.25 23.6719C111.75 24.2656 111.328 24.9479 110.984 25.7188C110.661 26.4583 110.427 27.2135 110.281 27.9844C110.594 27.1198 110.901 26.3958 111.203 25.8125C111.609 25.0312 112.036 24.3854 112.484 23.875ZM123.391 34.5156C123.88 35.0573 124.312 35.6406 124.688 36.2656C125.26 37.2448 125.547 38.1927 125.547 39.1094C125.547 39.9323 125.328 40.6719 124.891 41.3281C124.495 41.9219 123.979 42.3698 123.344 42.6719C122.719 42.974 122.104 43.0677 121.5 42.9531C120.073 42.6823 119.01 41.8594 118.312 40.4844C118.198 40.2448 118.073 39.9635 117.938 39.6406L117.781 39.2188L117.625 38.8281C117.375 38.1927 117.141 37.75 116.922 37.5C116.557 37.0833 116.281 37 116.094 37.25C115.833 37.5938 115.677 38.5677 115.625 40.1719C115.594 41.0365 115.318 41.724 114.797 42.2344C114.307 42.7031 113.708 42.9271 113 42.9062C112.25 42.8854 111.557 42.599 110.922 42.0469C110.203 41.4219 109.667 40.5573 109.312 39.4531C108.719 37.6302 108.411 35.6042 108.391 33.375C108.37 31.0729 108.667 28.9583 109.281 27.0312C109.958 24.9167 110.938 23.3073 112.219 22.2031C113.656 20.9531 115.38 20.4375 117.391 20.6562C118.932 20.8229 120.219 21.3229 121.25 22.1562C122.188 22.9271 122.844 23.9062 123.219 25.0938C123.562 26.2292 123.609 27.4167 123.359 28.6562C123.099 29.9062 122.557 31.0365 121.734 32.0469C121.557 32.2656 121.521 32.4844 121.625 32.7031C121.698 32.8594 121.911 33.1042 122.266 33.4375L122.391 33.5469L122.516 33.6562C122.62 33.75 122.714 33.8333 122.797 33.9062C123.016 34.1146 123.214 34.3177 123.391 34.5156ZM135.353 36.6094C135.624 36.474 135.869 36.2656 136.088 35.9844C136.494 35.4323 136.624 34.8333 136.478 34.1875C136.364 34.8438 136.15 35.3854 135.838 35.8125C135.494 36.2708 135.03 36.6094 134.447 36.8281C134.759 36.849 135.061 36.776 135.353 36.6094ZM133.009 33.3125C132.822 33.6354 132.759 33.9948 132.822 34.3906C132.884 34.7865 133.056 35.1042 133.338 35.3438C133.619 35.5833 133.926 35.6771 134.259 35.625C134.593 35.5729 134.853 35.3854 135.041 35.0625C135.228 34.75 135.291 34.3958 135.228 34C135.166 33.6042 134.994 33.2865 134.713 33.0469C134.431 32.7969 134.124 32.6979 133.791 32.75C133.457 32.8125 133.197 33 133.009 33.3125ZM129.869 23.7656C130.494 23.1823 131.207 22.7292 132.009 22.4062C132.739 22.1042 133.577 21.9167 134.525 21.8438L133.869 21.8281L133.541 21.8438L133.213 21.875C132.754 21.9375 132.327 22.0365 131.931 22.1719C131.108 22.4531 130.353 22.9115 129.666 23.5469C129.02 24.1406 128.489 24.8438 128.072 25.6562C127.666 26.4375 127.374 27.2604 127.197 28.125L127.431 27.5156L127.681 26.9062L127.963 26.3281L128.119 26.0469L128.275 25.7656C128.765 24.9635 129.296 24.2969 129.869 23.7656ZM129.181 22.5469C131.338 20.7031 134.025 20.1771 137.244 20.9688C140.119 21.6771 142.051 23.3594 143.041 26.0156C143.916 28.3698 143.936 31.0312 143.103 34C142.291 36.8958 140.926 39.1979 139.009 40.9062C136.905 42.7812 134.666 43.3958 132.291 42.75C129.759 42.0729 127.884 40.3802 126.666 37.6719C125.53 35.1719 125.186 32.4531 125.634 29.5156C126.103 26.4948 127.285 24.1719 129.181 22.5469Z" fill="#F64E4E"/>
<path d="M4.97188 61.98H9.53188C10.4652 61.98 11.1652 62.18 11.6319 62.58C12.0985 62.98 12.3319 63.5 12.3319 64.14C12.3319 64.6333 12.1985 65.04 11.9319 65.36C11.6785 65.6667 11.3519 65.88 10.9519 66C11.6052 66.0933 12.1385 66.3267 12.5519 66.7C12.9785 67.06 13.1919 67.6 13.1919 68.32C13.1919 69.16 12.8852 69.82 12.2719 70.3C11.6585 70.7667 10.7519 71 9.55187 71H4.97188V61.98ZM7.09188 66.86V69.36H9.05188C9.73188 69.36 10.2252 69.26 10.5319 69.06C10.8385 68.8467 10.9919 68.5267 10.9919 68.1C10.9919 67.6467 10.8385 67.3267 10.5319 67.14C10.2252 66.9533 9.76521 66.86 9.15188 66.86H7.09188ZM7.09188 63.62V65.5H8.91188C9.36521 65.5 9.71188 65.4333 9.95188 65.3C10.2052 65.1533 10.3319 64.9067 10.3319 64.56C10.3319 64.2133 10.2119 63.9733 9.97188 63.84C9.73188 63.6933 9.37188 63.62 8.89188 63.62H7.09188ZM20.0519 71.16C19.4919 71.16 18.9519 71.0533 18.4319 70.84C17.9252 70.6133 17.4719 70.2933 17.0719 69.88C16.6852 69.4667 16.3719 68.9733 16.1319 68.4C15.8919 67.8267 15.7719 67.1867 15.7719 66.48C15.7719 65.7733 15.8852 65.1333 16.1119 64.56C16.3519 63.9867 16.6652 63.5 17.0519 63.1C17.4385 62.6867 17.8919 62.3733 18.4119 62.16C18.9319 61.9333 19.4785 61.82 20.0519 61.82C20.7719 61.82 21.3985 61.96 21.9319 62.24C22.4785 62.52 22.8852 62.8667 23.1519 63.28V61.98H25.1519V71H23.1519V69.64C22.8452 70.0933 22.4185 70.46 21.8719 70.74C21.3385 71.02 20.7319 71.16 20.0519 71.16ZM20.5319 69.28C20.9052 69.28 21.2452 69.2067 21.5519 69.06C21.8585 68.9133 22.1185 68.72 22.3319 68.48C22.5585 68.2267 22.7319 67.9333 22.8519 67.6C22.9719 67.2667 23.0319 66.9067 23.0319 66.52V66.36C23.0319 65.9867 22.9719 65.64 22.8519 65.32C22.7452 65 22.5852 64.72 22.3719 64.48C22.1585 64.24 21.8919 64.0533 21.5719 63.92C21.2652 63.7733 20.9185 63.7 20.5319 63.7C20.1852 63.7 19.8585 63.76 19.5519 63.88C19.2585 64 18.9985 64.18 18.7719 64.42C18.5452 64.6467 18.3652 64.9333 18.2319 65.28C18.0985 65.6267 18.0319 66.0267 18.0319 66.48C18.0319 67.3333 18.2652 68.0133 18.7319 68.52C19.1985 69.0267 19.7985 69.28 20.5319 69.28ZM39.4786 61.98H41.6186V71H29.1586V61.98H31.2786V69.12H34.3186V61.98H36.4586V69.12H39.4786V61.98ZM52.193 61.98H60.353V71H58.213V63.86H54.313V71H52.193V61.98ZM68.0152 71.16C67.4552 71.16 66.9152 71.0533 66.3952 70.84C65.8885 70.6133 65.4352 70.2933 65.0352 69.88C64.6485 69.4667 64.3352 68.9733 64.0952 68.4C63.8552 67.8267 63.7352 67.1867 63.7352 66.48C63.7352 65.7733 63.8485 65.1333 64.0752 64.56C64.3152 63.9867 64.6285 63.5 65.0152 63.1C65.4018 62.6867 65.8552 62.3733 66.3752 62.16C66.8952 61.9333 67.4418 61.82 68.0152 61.82C68.7352 61.82 69.3618 61.96 69.8952 62.24C70.4418 62.52 70.8485 62.8667 71.1152 63.28V61.98H73.1152V71H71.1152V69.64C70.8085 70.0933 70.3818 70.46 69.8352 70.74C69.3018 71.02 68.6952 71.16 68.0152 71.16ZM68.4952 69.28C68.8685 69.28 69.2085 69.2067 69.5152 69.06C69.8218 68.9133 70.0818 68.72 70.2952 68.48C70.5218 68.2267 70.6952 67.9333 70.8152 67.6C70.9352 67.2667 70.9952 66.9067 70.9952 66.52V66.36C70.9952 65.9867 70.9352 65.64 70.8152 65.32C70.7085 65 70.5485 64.72 70.3352 64.48C70.1218 64.24 69.8552 64.0533 69.5352 63.92C69.2285 63.7733 68.8818 63.7 68.4952 63.7C68.1485 63.7 67.8218 63.76 67.5152 63.88C67.2218 64 66.9618 64.18 66.7352 64.42C66.5085 64.6467 66.3285 64.9333 66.1952 65.28C66.0618 65.6267 65.9952 66.0267 65.9952 66.48C65.9952 67.3333 66.2285 68.0133 66.6952 68.52C67.1618 69.0267 67.7618 69.28 68.4952 69.28ZM77.1219 75.8V61.98H79.1219V63.28C79.3885 62.8667 79.7885 62.52 80.3219 62.24C80.8685 61.96 81.5019 61.82 82.2219 61.82C82.7952 61.82 83.3419 61.9333 83.8619 62.16C84.3819 62.3733 84.8352 62.6867 85.2219 63.1C85.6085 63.5 85.9152 63.9867 86.1419 64.56C86.3819 65.1333 86.5019 65.7733 86.5019 66.48C86.5019 67.1867 86.3819 67.8267 86.1419 68.4C85.9019 68.9733 85.5819 69.4667 85.1819 69.88C84.7952 70.2933 84.3419 70.6133 83.8219 70.84C83.3152 71.0533 82.7819 71.16 82.2219 71.16C81.5819 71.16 81.0019 71.04 80.4819 70.8C79.9752 70.5467 79.5619 70.2133 79.2419 69.8V75.8H77.1219ZM81.7419 63.7C80.9819 63.7 80.3819 63.9467 79.9419 64.44C79.5019 64.9333 79.2685 65.54 79.2419 66.26V66.52C79.2419 66.9067 79.3019 67.2667 79.4219 67.6C79.5419 67.9333 79.7085 68.2267 79.9219 68.48C80.1485 68.72 80.4085 68.9133 80.7019 69.06C81.0085 69.2067 81.3552 69.28 81.7419 69.28C82.4752 69.28 83.0752 69.0267 83.5419 68.52C84.0085 68.0133 84.2419 67.3333 84.2419 66.48C84.2419 66.0267 84.1752 65.6267 84.0419 65.28C83.9085 64.9333 83.7285 64.6467 83.5019 64.42C83.2752 64.18 83.0085 64 82.7019 63.88C82.4085 63.76 82.0885 63.7 81.7419 63.7ZM91.6356 63.86H88.7156V61.98H96.6956V63.86H93.7756V71H91.6356V63.86ZM106.025 67.24H101.925V71H99.8047V61.98H101.925V65.36H106.025V61.98H108.165V71H106.025V67.24ZM116.382 71.16C115.676 71.16 115.022 71.0533 114.422 70.84C113.836 70.6133 113.329 70.3 112.902 69.9C112.476 69.4867 112.142 69 111.902 68.44C111.662 67.8667 111.542 67.2267 111.542 66.52C111.542 65.7867 111.669 65.1333 111.922 64.56C112.176 63.9733 112.516 63.48 112.942 63.08C113.369 62.6667 113.869 62.3533 114.442 62.14C115.029 61.9267 115.642 61.82 116.282 61.82C116.989 61.82 117.616 61.9467 118.162 62.2C118.722 62.44 119.189 62.7733 119.562 63.2C119.949 63.6267 120.242 64.12 120.442 64.68C120.642 65.24 120.742 65.8267 120.742 66.44V66.96H113.642C113.749 67.7467 114.062 68.3533 114.582 68.78C115.102 69.1933 115.756 69.4 116.542 69.4C117.089 69.4 117.589 69.3 118.042 69.1C118.509 68.9 118.896 68.62 119.202 68.26L120.442 69.38C119.976 69.9667 119.389 70.4133 118.682 70.72C117.989 71.0133 117.222 71.16 116.382 71.16ZM116.162 63.58C115.536 63.58 115.002 63.7533 114.562 64.1C114.122 64.4467 113.829 64.9333 113.682 65.56H118.642C118.536 65 118.262 64.5333 117.822 64.16C117.396 63.7733 116.842 63.58 116.162 63.58ZM124.148 75.8V61.98H126.148V63.28C126.414 62.8667 126.814 62.52 127.348 62.24C127.894 61.96 128.528 61.82 129.248 61.82C129.821 61.82 130.368 61.9333 130.888 62.16C131.408 62.3733 131.861 62.6867 132.248 63.1C132.634 63.5 132.941 63.9867 133.168 64.56C133.408 65.1333 133.528 65.7733 133.528 66.48C133.528 67.1867 133.408 67.8267 133.168 68.4C132.928 68.9733 132.608 69.4667 132.208 69.88C131.821 70.2933 131.368 70.6133 130.848 70.84C130.341 71.0533 129.808 71.16 129.248 71.16C128.608 71.16 128.028 71.04 127.508 70.8C127.001 70.5467 126.588 70.2133 126.268 69.8V75.8H124.148ZM128.768 63.7C128.008 63.7 127.408 63.9467 126.968 64.44C126.528 64.9333 126.294 65.54 126.268 66.26V66.52C126.268 66.9067 126.328 67.2667 126.448 67.6C126.568 67.9333 126.734 68.2267 126.948 68.48C127.174 68.72 127.434 68.9133 127.728 69.06C128.034 69.2067 128.381 69.28 128.768 69.28C129.501 69.28 130.101 69.0267 130.568 68.52C131.034 68.0133 131.268 67.3333 131.268 66.48C131.268 66.0267 131.201 65.6267 131.068 65.28C130.934 64.9333 130.754 64.6467 130.528 64.42C130.301 64.18 130.034 64 129.728 63.88C129.434 63.76 129.114 63.7 128.768 63.7ZM143.53 61.98H148.09C149.023 61.98 149.723 62.18 150.19 62.58C150.656 62.98 150.89 63.5 150.89 64.14C150.89 64.6333 150.756 65.04 150.49 65.36C150.236 65.6667 149.91 65.88 149.51 66C150.163 66.0933 150.696 66.3267 151.11 66.7C151.536 67.06 151.75 67.6 151.75 68.32C151.75 69.16 151.443 69.82 150.83 70.3C150.216 70.7667 149.31 71 148.11 71H143.53V61.98ZM145.65 66.86V69.36H147.61C148.29 69.36 148.783 69.26 149.09 69.06C149.396 68.8467 149.55 68.5267 149.55 68.1C149.55 67.6467 149.396 67.3267 149.09 67.14C148.783 66.9533 148.323 66.86 147.71 66.86H145.65ZM145.65 63.62V65.5H147.47C147.923 65.5 148.27 65.4333 148.51 65.3C148.763 65.1533 148.89 64.9067 148.89 64.56C148.89 64.2133 148.77 63.9733 148.53 63.84C148.29 63.6933 147.93 63.62 147.45 63.62H145.65ZM164.365 71.16C163.872 71.16 163.425 71.1067 163.025 71C162.625 70.8933 162.265 70.7667 161.945 70.62C161.638 70.46 161.372 70.2867 161.145 70.1C160.918 69.9133 160.745 69.74 160.625 69.58L161.965 68.28C162.205 68.5733 162.518 68.82 162.905 69.02C163.305 69.22 163.778 69.32 164.325 69.32C164.898 69.32 165.338 69.2133 165.645 69C165.952 68.7733 166.105 68.4667 166.105 68.08C166.105 67.76 165.972 67.5 165.705 67.3C165.452 67.0867 165.025 66.98 164.425 66.98H163.145V65.38H164.165C164.632 65.38 164.992 65.3133 165.245 65.18C165.512 65.0333 165.645 64.8067 165.645 64.5C165.645 64.2333 165.505 64.0267 165.225 63.88C164.958 63.72 164.605 63.64 164.165 63.64C163.778 63.64 163.405 63.72 163.045 63.88C162.698 64.0267 162.392 64.22 162.125 64.46L161.025 63.14C161.332 62.82 161.758 62.52 162.305 62.24C162.852 61.96 163.538 61.82 164.365 61.82C165.392 61.82 166.212 62.04 166.825 62.48C167.438 62.9067 167.745 63.48 167.745 64.2C167.745 64.6267 167.625 65 167.385 65.32C167.158 65.6267 166.845 65.8733 166.445 66.06C167.058 66.2467 167.518 66.5333 167.825 66.92C168.132 67.2933 168.285 67.7467 168.285 68.28C168.285 68.68 168.192 69.06 168.005 69.42C167.832 69.7667 167.572 70.0733 167.225 70.34C166.892 70.5933 166.478 70.7933 165.985 70.94C165.505 71.0867 164.965 71.16 164.365 71.16ZM175.199 71.16C174.639 71.16 174.099 71.0533 173.579 70.84C173.072 70.6133 172.619 70.2933 172.219 69.88C171.832 69.4667 171.519 68.9733 171.279 68.4C171.039 67.8267 170.919 67.1867 170.919 66.48C170.919 65.7733 171.032 65.1333 171.259 64.56C171.499 63.9867 171.812 63.5 172.199 63.1C172.585 62.6867 173.039 62.3733 173.559 62.16C174.079 61.9333 174.625 61.82 175.199 61.82C175.919 61.82 176.545 61.96 177.079 62.24C177.625 62.52 178.032 62.8667 178.299 63.28V61.98H180.299V71H178.299V69.64C177.992 70.0933 177.565 70.46 177.019 70.74C176.485 71.02 175.879 71.16 175.199 71.16ZM175.679 69.28C176.052 69.28 176.392 69.2067 176.699 69.06C177.005 68.9133 177.265 68.72 177.479 68.48C177.705 68.2267 177.879 67.9333 177.999 67.6C178.119 67.2667 178.179 66.9067 178.179 66.52V66.36C178.179 65.9867 178.119 65.64 177.999 65.32C177.892 65 177.732 64.72 177.519 64.48C177.305 64.24 177.039 64.0533 176.719 63.92C176.412 63.7733 176.065 63.7 175.679 63.7C175.332 63.7 175.005 63.76 174.699 63.88C174.405 64 174.145 64.18 173.919 64.42C173.692 64.6467 173.512 64.9333 173.379 65.28C173.245 65.6267 173.179 66.0267 173.179 66.48C173.179 67.3333 173.412 68.0133 173.879 68.52C174.345 69.0267 174.945 69.28 175.679 69.28ZM188.645 71.18C186.885 71.18 185.619 70.62 184.845 69.5C184.085 68.38 183.705 66.7267 183.705 64.54C183.705 63.22 183.839 62.1067 184.105 61.2C184.385 60.28 184.772 59.5333 185.265 58.96C185.772 58.3867 186.372 57.9733 187.065 57.72C187.772 57.4667 188.545 57.34 189.385 57.34C189.892 57.34 190.279 57.2933 190.545 57.2C190.825 57.0933 191.045 56.8867 191.205 56.58L192.885 57.24C192.779 57.5867 192.645 57.8867 192.485 58.14C192.339 58.38 192.132 58.58 191.865 58.74C191.599 58.8867 191.272 59.0067 190.885 59.1C190.499 59.18 190.025 59.2333 189.465 59.26C188.839 59.2867 188.299 59.36 187.845 59.48C187.392 59.6 187.005 59.82 186.685 60.14C186.379 60.46 186.132 60.9133 185.945 61.5C185.772 62.0733 185.659 62.8267 185.605 63.76C185.992 63.0667 186.472 62.5733 187.045 62.28C187.632 61.9867 188.285 61.84 189.005 61.84C189.685 61.84 190.292 61.9533 190.825 62.18C191.359 62.4067 191.812 62.72 192.185 63.12C192.559 63.52 192.845 64 193.045 64.56C193.245 65.1067 193.345 65.7133 193.345 66.38C193.345 67.1267 193.225 67.7933 192.985 68.38C192.745 68.9667 192.412 69.4733 191.985 69.9C191.572 70.3133 191.079 70.6333 190.505 70.86C189.932 71.0733 189.312 71.18 188.645 71.18ZM188.605 69.28C189.365 69.28 189.972 69.0333 190.425 68.54C190.879 68.0467 191.105 67.36 191.105 66.48C191.105 65.64 190.885 64.9667 190.445 64.46C190.019 63.94 189.405 63.68 188.605 63.68C187.819 63.68 187.205 63.9267 186.765 64.42C186.325 64.9133 186.105 65.5933 186.105 66.46C186.105 67.34 186.332 68.0333 186.785 68.54C187.239 69.0333 187.845 69.28 188.605 69.28ZM200.941 71.16C200.247 71.16 199.607 71.0467 199.021 70.82C198.434 70.58 197.927 70.2533 197.501 69.84C197.074 69.4267 196.741 68.9333 196.501 68.36C196.261 67.7733 196.141 67.14 196.141 66.46C196.141 65.7667 196.261 65.14 196.501 64.58C196.741 64.0067 197.074 63.52 197.501 63.12C197.941 62.7067 198.454 62.3867 199.041 62.16C199.627 61.9333 200.261 61.82 200.941 61.82C201.634 61.82 202.274 61.9333 202.861 62.16C203.447 62.3867 203.954 62.7067 204.381 63.12C204.807 63.5333 205.134 64.0267 205.361 64.6C205.601 65.16 205.721 65.78 205.721 66.46C205.721 67.1533 205.601 67.7933 205.361 68.38C205.121 68.9533 204.781 69.4467 204.341 69.86C203.914 70.2733 203.407 70.5933 202.821 70.82C202.247 71.0467 201.621 71.16 200.941 71.16ZM200.941 69.32C201.741 69.32 202.367 69.0533 202.821 68.52C203.287 67.9867 203.521 67.3 203.521 66.46C203.521 65.6333 203.287 64.96 202.821 64.44C202.367 63.92 201.741 63.66 200.941 63.66C200.141 63.66 199.507 63.9267 199.041 64.46C198.587 64.98 198.361 65.6467 198.361 66.46C198.361 66.86 198.421 67.24 198.541 67.6C198.661 67.9467 198.827 68.2467 199.041 68.5C199.267 68.7533 199.541 68.9533 199.861 69.1C200.181 69.2467 200.541 69.32 200.941 69.32ZM210.844 63.86H207.924V61.98H215.904V63.86H212.984V71H210.844V63.86ZM222.863 71.16C222.156 71.16 221.503 71.0533 220.903 70.84C220.316 70.6133 219.809 70.3 219.383 69.9C218.956 69.4867 218.623 69 218.383 68.44C218.143 67.8667 218.023 67.2267 218.023 66.52C218.023 65.7867 218.149 65.1333 218.403 64.56C218.656 63.9733 218.996 63.48 219.423 63.08C219.849 62.6667 220.349 62.3533 220.923 62.14C221.509 61.9267 222.123 61.82 222.763 61.82C223.469 61.82 224.096 61.9467 224.643 62.2C225.203 62.44 225.669 62.7733 226.043 63.2C226.429 63.6267 226.723 64.12 226.923 64.68C227.123 65.24 227.223 65.8267 227.223 66.44V66.96H220.123C220.229 67.7467 220.543 68.3533 221.063 68.78C221.583 69.1933 222.236 69.4 223.023 69.4C223.569 69.4 224.069 69.3 224.523 69.1C224.989 68.9 225.376 68.62 225.683 68.26L226.923 69.38C226.456 69.9667 225.869 70.4133 225.163 70.72C224.469 71.0133 223.703 71.16 222.863 71.16ZM222.643 63.58C222.016 63.58 221.483 63.7533 221.043 64.1C220.603 64.4467 220.309 64.9333 220.163 65.56H225.123C225.016 65 224.743 64.5333 224.303 64.16C223.876 63.7733 223.323 63.58 222.643 63.58ZM48.818 88.16C48.1246 88.16 47.4846 88.0467 46.898 87.82C46.3113 87.58 45.8046 87.2533 45.378 86.84C44.9513 86.4267 44.618 85.9333 44.378 85.36C44.138 84.7733 44.018 84.14 44.018 83.46C44.018 82.7667 44.138 82.14 44.378 81.58C44.618 81.0067 44.9513 80.52 45.378 80.12C45.818 79.7067 46.3313 79.3867 46.918 79.16C47.5046 78.9333 48.138 78.82 48.818 78.82C49.5113 78.82 50.1513 78.9333 50.738 79.16C51.3246 79.3867 51.8313 79.7067 52.258 80.12C52.6846 80.5333 53.0113 81.0267 53.238 81.6C53.478 82.16 53.598 82.78 53.598 83.46C53.598 84.1533 53.478 84.7933 53.238 85.38C52.998 85.9533 52.658 86.4467 52.218 86.86C51.7913 87.2733 51.2846 87.5933 50.698 87.82C50.1246 88.0467 49.498 88.16 48.818 88.16ZM48.818 86.32C49.618 86.32 50.2446 86.0533 50.698 85.52C51.1646 84.9867 51.398 84.3 51.398 83.46C51.398 82.6333 51.1646 81.96 50.698 81.44C50.2446 80.92 49.618 80.66 48.818 80.66C48.018 80.66 47.3846 80.9267 46.918 81.46C46.4646 81.98 46.238 82.6467 46.238 83.46C46.238 83.86 46.298 84.24 46.418 84.6C46.538 84.9467 46.7046 85.2467 46.918 85.5C47.1446 85.7533 47.418 85.9533 47.738 86.1C48.058 86.2467 48.418 86.32 48.818 86.32ZM63.5898 78.98H68.1498C69.0832 78.98 69.7832 79.18 70.2498 79.58C70.7165 79.98 70.9498 80.5 70.9498 81.14C70.9498 81.6333 70.8165 82.04 70.5498 82.36C70.2965 82.6667 69.9698 82.88 69.5698 83C70.2232 83.0933 70.7565 83.3267 71.1698 83.7C71.5965 84.06 71.8098 84.6 71.8098 85.32C71.8098 86.16 71.5032 86.82 70.8898 87.3C70.2765 87.7667 69.3698 88 68.1698 88H63.5898V78.98ZM65.7098 83.86V86.36H67.6698C68.3498 86.36 68.8432 86.26 69.1498 86.06C69.4565 85.8467 69.6098 85.5267 69.6098 85.1C69.6098 84.6467 69.4565 84.3267 69.1498 84.14C68.8432 83.9533 68.3832 83.86 67.7698 83.86H65.7098ZM65.7098 80.62V82.5H67.5298C67.9832 82.5 68.3298 82.4333 68.5698 82.3C68.8232 82.1533 68.9498 81.9067 68.9498 81.56C68.9498 81.2133 68.8298 80.9733 68.5898 80.84C68.3498 80.6933 67.9898 80.62 67.5098 80.62H65.7098ZM78.6699 88.16C78.1099 88.16 77.5699 88.0533 77.0499 87.84C76.5432 87.6133 76.0898 87.2933 75.6898 86.88C75.3032 86.4667 74.9898 85.9733 74.7498 85.4C74.5098 84.8267 74.3898 84.1867 74.3898 83.48C74.3898 82.7733 74.5032 82.1333 74.7298 81.56C74.9698 80.9867 75.2832 80.5 75.6698 80.1C76.0565 79.6867 76.5099 79.3733 77.0299 79.16C77.5499 78.9333 78.0965 78.82 78.6699 78.82C79.3898 78.82 80.0165 78.96 80.5499 79.24C81.0965 79.52 81.5032 79.8667 81.7699 80.28V78.98H83.7699V88H81.7699V86.64C81.4632 87.0933 81.0365 87.46 80.4898 87.74C79.9565 88.02 79.3499 88.16 78.6699 88.16ZM79.1498 86.28C79.5232 86.28 79.8632 86.2067 80.1698 86.06C80.4765 85.9133 80.7365 85.72 80.9498 85.48C81.1765 85.2267 81.3499 84.9333 81.4699 84.6C81.5899 84.2667 81.6499 83.9067 81.6499 83.52V83.36C81.6499 82.9867 81.5899 82.64 81.4699 82.32C81.3632 82 81.2032 81.72 80.9899 81.48C80.7765 81.24 80.5099 81.0533 80.1899 80.92C79.8832 80.7733 79.5365 80.7 79.1498 80.7C78.8032 80.7 78.4765 80.76 78.1698 80.88C77.8765 81 77.6165 81.18 77.3898 81.42C77.1632 81.6467 76.9832 81.9333 76.8498 82.28C76.7165 82.6267 76.6498 83.0267 76.6498 83.48C76.6498 84.3333 76.8832 85.0133 77.3499 85.52C77.8165 86.0267 78.4165 86.28 79.1498 86.28ZM91.8966 88.16C91.1766 88.16 90.5232 88.0467 89.9366 87.82C89.3632 87.58 88.8699 87.2533 88.4566 86.84C88.0432 86.4267 87.7232 85.9333 87.4966 85.36C87.2832 84.7867 87.1766 84.16 87.1766 83.48C87.1766 82.7467 87.2966 82.0933 87.5366 81.52C87.7766 80.9467 88.1099 80.46 88.5366 80.06C88.9632 79.66 89.4632 79.3533 90.0366 79.14C90.6099 78.9267 91.2299 78.82 91.8966 78.82C92.6432 78.82 93.3232 78.9467 93.9366 79.2C94.5499 79.44 95.0499 79.7667 95.4366 80.18L94.2966 81.68C94.0299 81.3733 93.7032 81.1267 93.3166 80.94C92.9299 80.7533 92.5032 80.66 92.0366 80.66C91.2632 80.66 90.6299 80.9133 90.1366 81.42C89.6432 81.9267 89.3966 82.6 89.3966 83.44C89.3966 83.8667 89.4632 84.2533 89.5966 84.6C89.7299 84.9467 89.9166 85.2533 90.1566 85.52C90.3966 85.7733 90.6832 85.9733 91.0166 86.12C91.3499 86.2533 91.7166 86.32 92.1166 86.32C92.5966 86.32 93.0232 86.2267 93.3966 86.04C93.7699 85.84 94.0899 85.5867 94.3566 85.28L95.6166 86.54C95.2299 87.0467 94.7166 87.4467 94.0766 87.74C93.4366 88.02 92.7099 88.16 91.8966 88.16ZM105.323 78.98H107.443V84.56L112.043 78.98H113.603V88H111.483V82.2L106.703 88H105.323V78.98ZM124.197 78.98H128.757C129.69 78.98 130.39 79.18 130.857 79.58C131.324 79.98 131.557 80.5 131.557 81.14C131.557 81.6333 131.424 82.04 131.157 82.36C130.904 82.6667 130.577 82.88 130.177 83C130.83 83.0933 131.364 83.3267 131.777 83.7C132.204 84.06 132.417 84.6 132.417 85.32C132.417 86.16 132.11 86.82 131.497 87.3C130.884 87.7667 129.977 88 128.777 88H124.197V78.98ZM126.317 83.86V86.36H128.277C128.957 86.36 129.45 86.26 129.757 86.06C130.064 85.8467 130.217 85.5267 130.217 85.1C130.217 84.6467 130.064 84.3267 129.757 84.14C129.45 83.9533 128.99 83.86 128.377 83.86H126.317ZM126.317 80.62V82.5H128.137C128.59 82.5 128.937 82.4333 129.177 82.3C129.43 82.1533 129.557 81.9067 129.557 81.56C129.557 81.2133 129.437 80.9733 129.197 80.84C128.957 80.6933 128.597 80.62 128.117 80.62H126.317ZM139.277 88.16C138.717 88.16 138.177 88.0533 137.657 87.84C137.15 87.6133 136.697 87.2933 136.297 86.88C135.91 86.4667 135.597 85.9733 135.357 85.4C135.117 84.8267 134.997 84.1867 134.997 83.48C134.997 82.7733 135.11 82.1333 135.337 81.56C135.577 80.9867 135.89 80.5 136.277 80.1C136.664 79.6867 137.117 79.3733 137.637 79.16C138.157 78.9333 138.704 78.82 139.277 78.82C139.997 78.82 140.624 78.96 141.157 79.24C141.704 79.52 142.11 79.8667 142.377 80.28V78.98H144.377V88H142.377V86.64C142.07 87.0933 141.644 87.46 141.097 87.74C140.564 88.02 139.957 88.16 139.277 88.16ZM139.757 86.28C140.13 86.28 140.47 86.2067 140.777 86.06C141.084 85.9133 141.344 85.72 141.557 85.48C141.784 85.2267 141.957 84.9333 142.077 84.6C142.197 84.2667 142.257 83.9067 142.257 83.52V83.36C142.257 82.9867 142.197 82.64 142.077 82.32C141.97 82 141.81 81.72 141.597 81.48C141.384 81.24 141.117 81.0533 140.797 80.92C140.49 80.7733 140.144 80.7 139.757 80.7C139.41 80.7 139.084 80.76 138.777 80.88C138.484 81 138.224 81.18 137.997 81.42C137.77 81.6467 137.59 81.9333 137.457 82.28C137.324 82.6267 137.257 83.0267 137.257 83.48C137.257 84.3333 137.49 85.0133 137.957 85.52C138.424 86.0267 139.024 86.28 139.757 86.28ZM158.704 78.98H160.844V88H148.384V78.98H150.504V86.12H153.544V78.98H155.684V86.12H158.704V78.98ZM169.063 88.16C168.356 88.16 167.703 88.0533 167.103 87.84C166.516 87.6133 166.009 87.3 165.583 86.9C165.156 86.4867 164.823 86 164.583 85.44C164.343 84.8667 164.223 84.2267 164.223 83.52C164.223 82.7867 164.349 82.1333 164.603 81.56C164.856 80.9733 165.196 80.48 165.623 80.08C166.049 79.6667 166.549 79.3533 167.123 79.14C167.709 78.9267 168.323 78.82 168.963 78.82C169.669 78.82 170.296 78.9467 170.843 79.2C171.403 79.44 171.869 79.7733 172.243 80.2C172.629 80.6267 172.923 81.12 173.123 81.68C173.323 82.24 173.423 82.8267 173.423 83.44V83.96H166.323C166.429 84.7467 166.743 85.3533 167.263 85.78C167.783 86.1933 168.436 86.4 169.223 86.4C169.769 86.4 170.269 86.3 170.723 86.1C171.189 85.9 171.576 85.62 171.883 85.26L173.123 86.38C172.656 86.9667 172.069 87.4133 171.363 87.72C170.669 88.0133 169.903 88.16 169.063 88.16ZM168.843 80.58C168.216 80.58 167.683 80.7533 167.243 81.1C166.803 81.4467 166.509 81.9333 166.363 82.56H171.323C171.216 82 170.943 81.5333 170.503 81.16C170.076 80.7733 169.523 80.58 168.843 80.58ZM177.59 78.98H179.31L181.91 84.6L184.39 78.98H186.13L187.67 88H185.67L184.75 82.4L182.21 88H181.39L178.87 82.5L177.97 88H176.05L177.59 78.98ZM74.2849 105.16C73.7916 105.16 73.3449 105.107 72.9449 105C72.5449 104.893 72.1849 104.767 71.8649 104.62C71.5583 104.46 71.2916 104.287 71.0649 104.1C70.8383 103.913 70.6649 103.74 70.5449 103.58L71.8849 102.28C72.1249 102.573 72.4383 102.82 72.8249 103.02C73.2249 103.22 73.6983 103.32 74.2449 103.32C74.8183 103.32 75.2583 103.213 75.5649 103C75.8716 102.773 76.0249 102.467 76.0249 102.08C76.0249 101.76 75.8916 101.5 75.6249 101.3C75.3716 101.087 74.9449 100.98 74.3449 100.98H73.0649V99.38H74.0849C74.5516 99.38 74.9116 99.3133 75.1649 99.18C75.4316 99.0333 75.5649 98.8067 75.5649 98.5C75.5649 98.2333 75.4249 98.0267 75.1449 97.88C74.8783 97.72 74.5249 97.64 74.0849 97.64C73.6983 97.64 73.3249 97.72 72.9649 97.88C72.6183 98.0267 72.3116 98.22 72.0449 98.46L70.9449 97.14C71.2516 96.82 71.6783 96.52 72.2249 96.24C72.7716 95.96 73.4583 95.82 74.2849 95.82C75.3116 95.82 76.1316 96.04 76.7449 96.48C77.3583 96.9067 77.6649 97.48 77.6649 98.2C77.6649 98.6267 77.5449 99 77.3049 99.32C77.0783 99.6267 76.7649 99.8733 76.3649 100.06C76.9783 100.247 77.4383 100.533 77.7449 100.92C78.0516 101.293 78.2049 101.747 78.2049 102.28C78.2049 102.68 78.1116 103.06 77.9249 103.42C77.7516 103.767 77.4916 104.073 77.1449 104.34C76.8116 104.593 76.3983 104.793 75.9049 104.94C75.4249 105.087 74.8849 105.16 74.2849 105.16ZM80.4349 103.12H81.4949C81.8416 102.427 82.1083 101.64 82.2949 100.76C82.4816 99.8667 82.5749 98.8 82.5749 97.56V95.98H89.3749V103.12H90.8549V107.1H89.0549V105H82.2149V107.1H80.4349V103.12ZM84.5149 98.3C84.5149 99.2733 84.4416 100.153 84.2949 100.94C84.1483 101.727 83.9349 102.453 83.6549 103.12H87.2349V97.86H84.5149V98.3ZM97.8199 105.16C97.1266 105.16 96.4866 105.047 95.8999 104.82C95.3132 104.58 94.8066 104.253 94.3799 103.84C93.9532 103.427 93.6199 102.933 93.3799 102.36C93.1399 101.773 93.0199 101.14 93.0199 100.46C93.0199 99.7667 93.1399 99.14 93.3799 98.58C93.6199 98.0067 93.9532 97.52 94.3799 97.12C94.8199 96.7067 95.3332 96.3867 95.9199 96.16C96.5066 95.9333 97.1399 95.82 97.8199 95.82C98.5132 95.82 99.1532 95.9333 99.7399 96.16C100.327 96.3867 100.833 96.7067 101.26 97.12C101.687 97.5333 102.013 98.0267 102.24 98.6C102.48 99.16 102.6 99.78 102.6 100.46C102.6 101.153 102.48 101.793 102.24 102.38C102 102.953 101.66 103.447 101.22 103.86C100.793 104.273 100.287 104.593 99.6999 104.82C99.1266 105.047 98.4999 105.16 97.8199 105.16ZM97.8199 103.32C98.6199 103.32 99.2466 103.053 99.6999 102.52C100.167 101.987 100.4 101.3 100.4 100.46C100.4 99.6333 100.167 98.96 99.6999 98.44C99.2466 97.92 98.6199 97.66 97.8199 97.66C97.0199 97.66 96.3866 97.9267 95.9199 98.46C95.4666 98.98 95.2399 99.6467 95.2399 100.46C95.2399 100.86 95.2999 101.24 95.4199 101.6C95.5399 101.947 95.7066 102.247 95.9199 102.5C96.1466 102.753 96.4199 102.953 96.7399 103.1C97.0599 103.247 97.4199 103.32 97.8199 103.32ZM105.996 109.8V95.98H107.996V97.28C108.263 96.8667 108.663 96.52 109.196 96.24C109.743 95.96 110.376 95.82 111.096 95.82C111.67 95.82 112.216 95.9333 112.736 96.16C113.256 96.3733 113.71 96.6867 114.096 97.1C114.483 97.5 114.79 97.9867 115.016 98.56C115.256 99.1333 115.376 99.7733 115.376 100.48C115.376 101.187 115.256 101.827 115.016 102.4C114.776 102.973 114.456 103.467 114.056 103.88C113.67 104.293 113.216 104.613 112.696 104.84C112.19 105.053 111.656 105.16 111.096 105.16C110.456 105.16 109.876 105.04 109.356 104.8C108.85 104.547 108.436 104.213 108.116 103.8V109.8H105.996ZM110.616 97.7C109.856 97.7 109.256 97.9467 108.816 98.44C108.376 98.9333 108.143 99.54 108.116 100.26V100.52C108.116 100.907 108.176 101.267 108.296 101.6C108.416 101.933 108.583 102.227 108.796 102.48C109.023 102.72 109.283 102.913 109.576 103.06C109.883 103.207 110.23 103.28 110.616 103.28C111.35 103.28 111.95 103.027 112.416 102.52C112.883 102.013 113.116 101.333 113.116 100.48C113.116 100.027 113.05 99.6267 112.916 99.28C112.783 98.9333 112.603 98.6467 112.376 98.42C112.15 98.18 111.883 98 111.576 97.88C111.283 97.76 110.963 97.7 110.616 97.7ZM122.983 105.16C122.29 105.16 121.65 105.047 121.063 104.82C120.477 104.58 119.97 104.253 119.543 103.84C119.117 103.427 118.783 102.933 118.543 102.36C118.303 101.773 118.183 101.14 118.183 100.46C118.183 99.7667 118.303 99.14 118.543 98.58C118.783 98.0067 119.117 97.52 119.543 97.12C119.983 96.7067 120.497 96.3867 121.083 96.16C121.67 95.9333 122.303 95.82 122.983 95.82C123.677 95.82 124.317 95.9333 124.903 96.16C125.49 96.3867 125.997 96.7067 126.423 97.12C126.85 97.5333 127.177 98.0267 127.403 98.6C127.643 99.16 127.763 99.78 127.763 100.46C127.763 101.153 127.643 101.793 127.403 102.38C127.163 102.953 126.823 103.447 126.383 103.86C125.957 104.273 125.45 104.593 124.863 104.82C124.29 105.047 123.663 105.16 122.983 105.16ZM122.983 103.32C123.783 103.32 124.41 103.053 124.863 102.52C125.33 101.987 125.563 101.3 125.563 100.46C125.563 99.6333 125.33 98.96 124.863 98.44C124.41 97.92 123.783 97.66 122.983 97.66C122.183 97.66 121.55 97.9267 121.083 98.46C120.63 98.98 120.403 99.6467 120.403 100.46C120.403 100.86 120.463 101.24 120.583 101.6C120.703 101.947 120.87 102.247 121.083 102.5C121.31 102.753 121.583 102.953 121.903 103.1C122.223 103.247 122.583 103.32 122.983 103.32ZM131.16 95.98H135.72C136.653 95.98 137.353 96.18 137.82 96.58C138.286 96.98 138.52 97.5 138.52 98.14C138.52 98.6333 138.386 99.04 138.12 99.36C137.866 99.6667 137.54 99.88 137.14 100C137.793 100.093 138.326 100.327 138.74 100.7C139.166 101.06 139.38 101.6 139.38 102.32C139.38 103.16 139.073 103.82 138.46 104.3C137.846 104.767 136.94 105 135.74 105H131.16V95.98ZM133.28 100.86V103.36H135.24C135.92 103.36 136.413 103.26 136.72 103.06C137.026 102.847 137.18 102.527 137.18 102.1C137.18 101.647 137.026 101.327 136.72 101.14C136.413 100.953 135.953 100.86 135.34 100.86H133.28ZM133.28 97.62V99.5H135.1C135.553 99.5 135.9 99.4333 136.14 99.3C136.393 99.1533 136.52 98.9067 136.52 98.56C136.52 98.2133 136.4 97.9733 136.16 97.84C135.92 97.6933 135.56 97.62 135.08 97.62H133.28ZM142.56 95.98H144.68V98.72H146.42C147.673 98.72 148.62 98.9733 149.26 99.48C149.913 99.9867 150.24 100.767 150.24 101.82C150.24 102.86 149.906 103.653 149.24 104.2C148.586 104.733 147.58 105 146.22 105H142.56V95.98ZM145.98 103.28C146.62 103.28 147.126 103.187 147.5 103C147.886 102.813 148.08 102.42 148.08 101.82C148.08 101.3 147.906 100.94 147.56 100.74C147.226 100.54 146.733 100.44 146.08 100.44H144.68V103.28H145.98ZM157.79 105.16C157.083 105.16 156.43 105.053 155.83 104.84C155.243 104.613 154.736 104.3 154.31 103.9C153.883 103.487 153.55 103 153.31 102.44C153.07 101.867 152.95 101.227 152.95 100.52C152.95 99.7867 153.076 99.1333 153.33 98.56C153.583 97.9733 153.923 97.48 154.35 97.08C154.776 96.6667 155.276 96.3533 155.85 96.14C156.436 95.9267 157.05 95.82 157.69 95.82C158.396 95.82 159.023 95.9467 159.57 96.2C160.13 96.44 160.596 96.7733 160.97 97.2C161.356 97.6267 161.65 98.12 161.85 98.68C162.05 99.24 162.15 99.8267 162.15 100.44V100.96H155.05C155.156 101.747 155.47 102.353 155.99 102.78C156.51 103.193 157.163 103.4 157.95 103.4C158.496 103.4 158.996 103.3 159.45 103.1C159.916 102.9 160.303 102.62 160.61 102.26L161.85 103.38C161.383 103.967 160.796 104.413 160.09 104.72C159.396 105.013 158.63 105.16 157.79 105.16ZM157.57 97.58C156.943 97.58 156.41 97.7533 155.97 98.1C155.53 98.4467 155.236 98.9333 155.09 99.56H160.05C159.943 99 159.67 98.5333 159.23 98.16C158.803 97.7733 158.25 97.58 157.57 97.58Z" fill="#2B1B1B"/>
</svg>
