<svg width="22" height="22" viewBox="0 0 22 22" fill="none" xmlns="http://www.w3.org/2000/svg">
<path d="M19.6582 1.71434C19.2328 1.85614 14.923 3.2784 10.0762 4.87684C5.2336 6.47098 1.13008 7.8245 0.958207 7.88895C0.571488 8.02645 0.305082 8.25848 0.141801 8.58504C-0.0214807 8.9159 -0.0257775 9.41434 0.124613 9.71083C0.249222 9.95575 0.489847 10.2093 0.696097 10.3167C0.782035 10.3597 1.91211 10.8624 3.20547 11.4296C4.49883 11.9968 5.56016 12.4651 5.56875 12.4737C5.57735 12.4823 5.9125 14.012 6.31211 15.8725C6.71602 17.7331 7.07696 19.3272 7.11993 19.4132C7.28321 19.7483 7.67422 19.86 8.01367 19.6667C8.10821 19.6108 9.00196 18.9534 9.99883 18.2057L11.8121 16.8479L13.909 18.5624C15.0605 19.5077 16.1004 20.3284 16.2164 20.3929C16.4914 20.5432 16.8695 20.5776 17.209 20.4745C17.557 20.3757 17.9523 19.9847 18.0598 19.6366C18.0984 19.5077 19.0051 15.6878 20.0707 11.1503C22.1977 2.09676 22.0859 2.65536 21.8582 2.20848C21.6262 1.75731 21.2395 1.50379 20.7324 1.47372C20.4574 1.46082 20.3672 1.47801 19.6582 1.71434ZM20.6895 2.8659C20.6723 2.93465 19.8 6.63856 18.7516 11.103C17.7031 15.5675 16.8352 19.2327 16.8223 19.2413C16.8094 19.2542 16.7664 19.2327 16.7277 19.1983C16.6848 19.164 15.2023 17.9479 13.4277 16.4999C11.6574 15.0518 10.1879 13.853 10.1707 13.8358C10.1535 13.8186 11.6488 12.2245 13.5008 10.2909C15.3527 8.35731 16.9082 6.70731 16.9598 6.62137C17.0242 6.51825 17.0586 6.39793 17.0586 6.26903C17.0586 6.09715 17.0328 6.0413 16.8953 5.88661C16.7406 5.71043 16.7148 5.69755 16.4742 5.68465L16.2207 5.66747L11.1633 8.47762L6.11016 11.2878L3.69532 10.235C2.37188 9.65497 1.30196 9.16512 1.32344 9.14364C1.35782 9.10926 20.5648 2.75848 20.6637 2.75418C20.7066 2.74989 20.7109 2.77997 20.6895 2.8659ZM12.9336 8.99755C12.9336 9.00614 11.9754 10.0202 10.8023 11.2448C9.6293 12.4694 8.64102 13.5265 8.61094 13.5995C8.58086 13.6682 8.38321 14.3171 8.18125 15.039C7.975 15.7608 7.79453 16.3624 7.77735 16.3839C7.75157 16.414 6.90938 12.5897 6.90078 12.405C6.89649 12.3491 7.62696 11.9237 9.9043 10.6561C11.5586 9.73661 12.9164 8.98036 12.925 8.98036C12.9293 8.98036 12.9336 8.98895 12.9336 8.99755ZM10.218 15.546C10.5102 15.7823 10.7465 15.9886 10.7465 16.0057C10.7465 16.0487 8.87305 17.4452 8.86016 17.4108C8.85586 17.3936 8.96758 16.9725 9.10938 16.4784C9.57344 14.8714 9.53477 14.9788 9.61641 15.0518C9.65508 15.0862 9.92578 15.3054 10.218 15.546Z" fill="#2B1B1B"/>
</svg>
