<svg width="20" height="20" viewBox="0 0 20 20" fill="none" xmlns="http://www.w3.org/2000/svg">
<g clip-path="url(#clip0_779_142)">
<path d="M9.99967 6.66659C10.9205 6.66659 11.6663 5.92075 11.6663 4.99992C11.6663 4.07909 10.9205 3.33325 9.99967 3.33325C9.07884 3.33325 8.33301 4.07909 8.33301 4.99992C8.33301 5.92075 9.07884 6.66659 9.99967 6.66659ZM9.99967 8.33325C9.07884 8.33325 8.33301 9.07909 8.33301 9.99992C8.33301 10.9208 9.07884 11.6666 9.99967 11.6666C10.9205 11.6666 11.6663 10.9208 11.6663 9.99992C11.6663 9.07909 10.9205 8.33325 9.99967 8.33325ZM9.99967 13.3333C9.07884 13.3333 8.33301 14.0791 8.33301 14.9999C8.33301 15.9208 9.07884 16.6666 9.99967 16.6666C10.9205 16.6666 11.6663 15.9208 11.6663 14.9999C11.6663 14.0791 10.9205 13.3333 9.99967 13.3333Z" fill="#7F7F7F"/>
</g>
<defs>
<clipPath id="clip0_779_142">
<rect width="20" height="20" fill="white"/>
</clipPath>
</defs>
</svg>
