<svg width="23" height="24" viewBox="0 0 23 24" fill="none" xmlns="http://www.w3.org/2000/svg">
<path d="M11.5 0.27002L12.9392 2.68863L15.0537 0.834115L15.6767 3.58007L18.2595 2.47118L18.0054 5.27569L20.8037 5.02098L19.6973 7.60951L22.4371 8.2339L20.5867 10.3531L23 11.7955L20.5867 13.2378L22.4371 15.357L19.6973 15.9814L20.8037 18.5699L18.0054 18.3152L18.2595 21.1197L15.6767 20.0109L15.0537 22.7568L12.9392 20.9023L11.5 23.3209L10.0608 20.9023L7.9463 22.7568L7.32329 20.0109L4.74047 21.1197L4.99462 18.3152L2.1963 18.5699L3.30274 15.9814L0.56285 15.357L2.41327 13.2378L0 11.7955L2.41327 10.3531L0.56285 8.2339L3.30274 7.60951L2.1963 5.02098L4.99462 5.27569L4.74047 2.47118L7.32329 3.58007L7.9463 0.834115L10.0608 2.68863L11.5 0.27002Z" fill="#F64E4E"/>
</svg>
